<svg xmlns="http://www.w3.org/2000/svg" viewBox="0 0 9680 9672"><defs><style>.cls-1{fill:#fdb441;}.cls-2{fill:#fea713;}.cls-3{fill:#fed402;}</style></defs><g id="Calque_2" data-name="Calque 2"><g id="Sun"><circle class="cls-1" cx="4872" cy="4816" r="2378.67"/><path class="cls-2" d="M6283.3,5538.71c-111.92,207.92-402,677.93-981.33,996C4490.36,6980.32,3695.18,6807,3500.55,6758.76c116.84,82.13,919.2,626,1954.28,366.19C6426.69,6881.05,6877.19,6111,6952,5978.18c72.34-131.7,513.35-967.34,168.39-1948.68C6725.84,2907.13,5644.1,2564,5531.73,2530.45,5688.13,2646,6255.4,3094,6454,3921.38,6646,4721.36,6369.12,5358.7,6283.3,5538.71Z"/><rect class="cls-3" x="4516.94" width="583.11" height="1530.67" rx="291.56"/><rect class="cls-3" x="4516.94" y="8141.33" width="583.11" height="1530.67" rx="291.56"/><rect class="cls-3" x="8623.11" y="4061.33" width="583.11" height="1530.67" rx="291.56" transform="translate(4088 13741.33) rotate(-90)"/><rect class="cls-3" x="473.78" y="4061.33" width="583.11" height="1530.67" rx="291.56" transform="translate(-4061.33 5592) rotate(-90)"/><rect class="cls-3" x="1679.11" y="1186.67" width="583.11" height="1530.67" rx="291.56" transform="translate(-803.08 1965.2) rotate(-45)"/><rect class="cls-3" x="7385.78" y="6936" width="583.11" height="1530.67" rx="291.56" transform="translate(-3197.03 7684.36) rotate(-45)"/><rect class="cls-3" x="1636.44" y="6936" width="583.11" height="1530.67" rx="291.56" transform="translate(-2154.36 14510.3) rotate(-135)"/><rect class="cls-3" x="7385.78" y="1186.67" width="583.11" height="1530.67" rx="291.56" transform="translate(11725.76 8760.97) rotate(-135)"/></g></g></svg>