<svg xmlns="http://www.w3.org/2000/svg" viewBox="0 0 13623.72 15672.89"><defs><style>.cls-1{fill:#fff;}</style></defs><g id="Calque_2" data-name="Calque 2"><g id="Accessoire3W"><path class="cls-1" d="M3736.05,0c-75.64,171.58-162.89,372.27-250.19,575-14.15,33-24,56.15-37.92,88.59C5014.85,1802.28,7237.23,2333,9789.25,1714.39a1957.77,1957.77,0,0,0-168.91-545.92C7630.13,1920.48,5232.93,1459,3736.09,0ZM3206.2,1228.86c-41.13,96.67-83.82,197.28-85.16,200.42-105.68,279.7-75.77,476.71,28.41,674.63,104.48,198.42,304.74,390.49,547.12,551.19C4181.43,2976.49,4841.94,3168,4982.17,3194c395,73.43,786.19-78.28,1242.71-271,357.78-151,754.08-326.53,1199.95-351.5C5797.1,2525.35,4352.47,2027.73,3206.2,1228.86ZM9785.08,2332.44c-721,163.66-1420.7,241.14-2091.16,242.61q55.28,4.9,111.56,13.42c492,40.56,772.54,754.31,1051.84,848.81,55.64,15.23,124.44,20.37,289-77.34,325.26-193,561.44-577,638.75-1027.47ZM2753.35,2598.32c-318.26,1410.85-665.69,2927-1120.7,4378.53-89.93,1096.7,21.83,1732.74,260.84,2333.8,240.34,604.37,631.83,1191.91,1094.36,2112.93,276.26,65.42,527.86,97.23,726.37,77.91,586.74-57.08,1504.69-597.76,2228.69-1142.4q421.53-317.59,820.38-663.72c-1081-15.35-2224.85-31.78-3224.22-46.13l-85.22-81.32c-429.68-409.92-754-1022.79-713.69-1632.2l18.56-280.63c1713,45.16,3214.14,118.06,4910.3,187.7,42.39-128.95,84.82-258.14,127.58-391.1-1084.12-194.44-3311.21-599.75-4030.63-775-277.87-97.34-365-467.11-452.65-708-112.93-313.11-228.06-708.35-267.38-1088.59l-42.13-406.65L8364.08,5561.62c143.1-520.14,273.39-1038.75,378.14-1534.36-586.61-80.55-631-726.7-1027-844.77-418.23-100.91-797.51,100.34-1256.7,294.18s-982.34,420.34-1586.27,308c-266.81-49.61-917.18-237.34-1507.65-628.77-227.23-150.62-444.37-332.24-611.31-557.63Zm966.18,2633.43c80.62,313.05,173.32,609.94,303.57,885.07,126.71,29.31,296,65.06,485.39,103.88L4341.25,5358Zm1258.84,255.6,166.57,859.76c295.82,57.42,610,117,927.59,176.42L5951,5684.83Zm1598.18,324.46,119.84,827c710.45,130.72,1347.33,245.52,1533.69,278.8l177-734.21Zm-3203,2457.25c66.93,267.72,225.75,566.68,419.43,782.89l479.19,6.91L3995.86,8294c-208.83-8.48-431.78-17.39-622.32-25Zm1270.71,51.38,270.09,747.63,877.39,12.55-223.32-722.56C5233.8,8344.37,4953.86,8333,4644.25,8320.44Zm1561.14,63.75,218,705.45c395.3,5.67,777.91,11.15,1163.53,16.49,86.66-226.09,170.48-472.81,232.33-655.81-231.4-9.51-933.1-38.25-1613.87-66.09ZM1071,8572.93C841.31,9152.26,587.75,9708.82,304,10229.37c226.52,138.06,597.75,357.14,1138.29,618.85q359.42,174,732.38,317.62c-332.9-614-624.92-1093.56-839.53-1633.14C1217.55,9237,1127.72,8925.4,1071,8572.93Zm6337.64,1353.3c-234.37,211.61-633.48,558.57-1104.58,913-756.52,569.14-1678.91,1177.25-2531.69,1260.27-255.64,24.87-526.42,2.67-802.69-51.51-63.62,592-217.71,1188.37-449.4,1730.21,3583.19,225.89,6771,327,10571.15,240-3.87-269.25-21.73-520.51-50.4-618-175.25-596.52-713-1086.29-1448.61-1521.08l-777.75,1437.29-2583.12,390.33,1802.91-2588q-238.91-102.3-478.55-202.83l-1409.82,1908.4-2766.59,117.37,440-522.65s594.55-706.11,1201.05-1421.3q373.57-440.78,749.41-879.63-182.49-92.46-361.35-191.84Zm1174.48,169.85c-271.33,310.27-554.8,643.92-800.72,933.07l924.19,25.13,467.74-633.1Zm-8106.8,927.06c-173,920.58-218.81,1751.17-164.9,2605.06q783.48,56.74,1567.3,108.72c266.69-557.43,444.47-1213.47,502.36-1846.61-413.9-136.3-824.72-319.26-1200.69-501.28C921.5,11263.65,684.26,11138,476.36,11023.14Zm10259.78,129.18-434.73,634.41,525.82,244,342.16-609.2Zm-3451.81,464.2q-282,333.16-563.41,666.79l1112.66-47.21,437.8-592.64Zm2668.35,670.82-429.45,616.52,905.6-136.86,111.86-206.8ZM114.21,14215C4.65,14634.47-50.09,15343.22,60.6,15672.89H3751.74c90.4-921.79,7011.17-551.86,7060.57,0h2777.41c49.17-231.1,56.75-877.52-57.52-1065.06-4831.67,126.65-8660.32-46.56-13418-392.83Z"/></g></g></svg>