<svg xmlns="http://www.w3.org/2000/svg" viewBox="0 0 15815.44 15815.44"><defs><style>.cls-1{fill:#fff;}.cls-2{fill:none;}</style></defs><g id="Calque_2" data-name="Calque 2"><g id="Tenue2W"><path id="shirt" class="cls-1" d="M13372,2532.94,10978.39,1335.42,10010.68,368.2C9941,299,9828.31,299,9758.62,368.2L7907.72,2219.6,6056.33,368.2a177.51,177.51,0,0,0-251.57,0l-967.71,968.21L2443.49,2532.94C2046.12,2732.12,1799,3132,1799,3576.27V15321.21a177.82,177.82,0,0,0,177.92,177.93H3953.86a177.82,177.82,0,0,0,177.92-177.93v-700.33l1301.81,651.4c298,148.77,631.14,227.35,963.76,227.35H9418.1c332.62,0,666.22-78.58,963.75-227.35l1301.81-650.9v699.83a177.82,177.82,0,0,0,177.92,177.93h1976.93a177.82,177.82,0,0,0,177.93-177.93V3575.77C14016.44,3131.46,13769.32,2732.12,13372,2532.94ZM9884.65,745.8l736.9,735.91L8896.19,3208.06l-736.9-736.9Zm-3953.86,0L7656.16,2471.16l-736.9,736.9L5193.89,1482.7ZM3775.94,15143.29H2154.85V14016.44H3775.94v1126.85Zm2621.41,0c-277.76,0-556-65.73-804.61-189.79l-1461-731V4942.33H3775.94v8718.26H2154.85V3576.27c0-308.9,172-586.66,447.78-725L4907.24,1699.17l1886.48,1886a177.49,177.49,0,0,0,251.57,0l190.77-190.77v11748.9Zm1194.06,0V3039l316.31-316.31L8224,3039V15142.79l-632.62.5Zm6069.18,0H12039.51V14016.44h1620.58l.5,1126.85Zm0-1482.7H12039.51V4942.33h-355.85v9280.2l-1461,731c-248.6,124.06-526.85,189.79-804.61,189.79H8579.88V3395.38l190.28,190.28c66.72,67.21,185.34,67.21,252.06,0l1886-1887,2304.11,1153c276.77,138.39,447.78,416.15,447.78,724.55l.49,10084.32Z"/><rect id="_Transparent_Rectangle" data-name=" Transparent Rectangle" class="cls-2" width="15815.44" height="15815.44"/></g></g></svg>