<svg xmlns="http://www.w3.org/2000/svg" viewBox="0 0 12107.7 16128"><defs><style>.cls-1{fill:#fff;}</style></defs><g id="Calque_2" data-name="Calque 2"><g id="Tenue1W"><path class="cls-1" d="M12103.86,13400.87,11327,4766.55c-52.27-690.76-448.06-1298.28-1058.85-1625.21L9588,2777.2c-4.15-205.31-31.13-784.72-196.67-1463.59-.35-1.69-.73-3.41-1.1-5.09h0c-1.1-5.19-2.4-10.41-4-15.5-44-163.27-150.76-306-317.23-424.28C8376.54,377,7643.64,159.42,7071.82,65.91,6534.68-22,5573.11-22,5035.93,65.91,4464.15,159.45,3731.29,377,3038.87,868.7c-164.54,116.85-270.7,257.61-315.68,418.51a177.46,177.46,0,0,0-6.84,26.91c-165.41,678.56-192.39,1257.7-196.54,1463l-680,364.18c-610.66,326.82-1006.59,934.35-1059,1622.77L3.89,13403.2c-17.74,232.22,25.43,466.66,124.78,678.12l119.08,253.07L216.06,15000a171.83,171.83,0,0,0,134.45,176l972.7,215.51a171.84,171.84,0,0,0,205.85-135l130.59-671.62A1352.7,1352.7,0,0,0,2013,13788.07l402-3648.87c8.69,1289,1.92,2737.24-53.75,3649.52-18.63,305.11,119.63,590.49,350.4,769.67v1050a171.83,171.83,0,0,0,134.34,167.7c1049.37,234.59,2128.68,351.88,3208,351.88s2158.51-117.29,3207.67-351.88a171.83,171.83,0,0,0,134.34-167.7V14558.53c230.81-179.22,369.09-464.6,350.43-769.7-55.7-912.5-62.47-2361.51-53.75-3650.69L10095,13788.07a1354.6,1354.6,0,0,0,353,796.68l130.66,671.83a171.89,171.89,0,0,0,205.85,135l972.7-215.51a171.81,171.81,0,0,0,134.44-176l-31.68-665.58,119-252.93C12078.19,13871,12121.49,13636.52,12103.86,13400.87ZM9186,2080.42c43,317.75,54.71,567.83,57.87,690-604.67,454.32-1408.74,763.14-2061.83,958.44,209.05-129,432.15-273,652.16-425.9C8491.56,2846,8940.45,2440.72,9186,2080.42ZM4469.78,3020.75c-470-326.65-833-632.37-1075.59-900.88,650-416.52,1332.82-588,1841.75-656.43,473-63.57,1165.67-64.61,1642.57,0,507.66,68.77,1186.77,240.63,1835.23,656.39C8471.63,2387.86,8109.34,2693,7640.55,3019c-663.65,461.54-1357.43,840.43-1586.66,962.36C5825.05,3859.63,5133.22,3481.88,4469.78,3020.75ZM3051.35,1391c.27-1.14.55-2.24.75-3.41a.58.58,0,0,0,0-.17c.14-.58.27-1.13.38-1.72.1-.38.2-.72.31-1.06,22.27-85.09,84.5-164.38,185-235.75,583.92-414.67,1208.6-618.12,1719.49-716.44,620.51-119.39,1574.52-120.52,2197.82,0C7664.5,530.92,8286.6,734.54,8870,1148.86c100.52,71.37,162.76,150.73,185,235.75.1.34.2.72.31,1.06.37,1.79.75,3.58,1.2,5.3a.82.82,0,0,0,.07.3c30.1,123.86-15.6,278.37-130.49,456.63C8199,1373.47,7443,1186.14,6886.66,1115.45c-441.47-56.08-1223.79-56.08-1665,0-556.28,70.65-1312.51,258-2039.77,732.55C3066.78,1669.57,3021.07,1514.89,3051.35,1391Zm-129.67,689.28c245.59,360.33,694.55,765.75,1352,1222.68,220.26,153.1,443.67,297.23,653,426.38-653-195.13-1457.27-504-2062.7-959C2867,2648.29,2878.62,2398.48,2921.68,2080.25ZM566.22,14871.74l17.46-366.58,715.3,134.13-73.61,378.51ZM3055.3,15470.2v-746c1962.21,514.36,4034.84,514.36,5997,0v746C7087.7,15889.22,5020.22,15889.22,3055.3,15470.2Zm7827-452.4-73.62-378.51,715.34-134.13,17.45,366.58ZM11668,13935l-99.87,212.21-899.16,168.6A1010.42,1010.42,0,0,1,10437.1,13756c-.1-1.24-.24-2.51-.38-3.74L9732.18,7360.38c-9.9-89.9-88.87-156.95-178.15-152.83a171.77,171.77,0,0,0-164.41,167.5c-1.1,44.44-106.4,4467.72,13.74,6434.74,16.26,266-159.35,508.52-417.48,576.7-1918.18,506.69-3946,506.69-5864.22,0-258.16-68.18-433.7-310.74-417.41-576.7,120.07-1967,14.85-6390.3,13.74-6434.74a171.84,171.84,0,0,0-342.59-14.67L1671.16,13752.3c-.13,1.27-.27,2.54-.37,3.81a1010.82,1010.82,0,0,1-232,559.79l-899.33-168.63-99.8-212.11c-74.13-157.78-106.33-332.67-93.34-503.43l777-8639.16c43.68-573.13,372.15-1077.14,878.78-1348.26L2695.21,3073c523.54,384.45,1227.12,712.1,2094.38,974.76,32.55,9.86,64.61,19.35,96.4,28.66V8896.86a171.83,171.83,0,0,0,343.66,0V4171.26c444.46,115.13,756.44,167.3,794,173.41a171.14,171.14,0,0,0,30.14,2.65h.21a170.69,170.69,0,0,0,30.13-2.65c37.64-6.11,349.58-58.31,794-173.41V8896.9a171.83,171.83,0,0,0,343.66,0V4076.45c31.79-9.32,63.85-18.8,96.4-28.66,867.19-262.67,1570.74-590.28,2094.27-974.7L10106,3444.35c506.66,271.22,835,775.16,878.57,1350.59l776.81,8634.14A1010.93,1010.93,0,0,1,11668,13935Z"/></g></g></svg>