<svg xmlns="http://www.w3.org/2000/svg" viewBox="0 0 15025.6 15508.74"><defs><style>.cls-1{fill:none;stroke:#000;stroke-miterlimit:10;stroke-width:250px;}</style></defs><g id="Calque_2" data-name="Calque 2"><g id="Parapluie"><path class="cls-1" d="M7555.55,1173.33c-658.44-20.25-2675.1,3.15-4555.17,1408C534.63,4423.82,180.71,7240.05,125.09,8005.47c-2.27,31.17,39.72,43.14,54.27,15.48,464.12-882.36,1414.26-1394.74,2373-1279.62,825,99.06,1539.07,648.63,1875.41,1427.06,27.08,62.66,114.61,66.08,146.3,5.62,598.34-1141.46,1794.66-1853.12,3077-1816.68,1217.78,34.61,2324.25,738.57,2888.68,1823.49,30.9,59.4,116.49,58,145.15-2.52,368.17-777.56,1135.23-1301.15,2000.83-1351.63,875.91-51.09,1708.65,390.66,2161.42,1137.51,15.45,25.48,54.67,13.63,53.44-16.13-30-728.58-228.18-2690.15-1745.52-4406.72C11013.11,1118.17,7989.75,1160,7555.55,1173.33Z"/><path class="cls-1" d="M4195.05,13653.33c-6.7,168-12.75,812.27,448,1280,656.92,666.89,1818.53,524,2410.66,21.34,482.45-409.52,597.34-1038.53,597.34-1301.34v-7296"/><path class="cls-1" d="M10616.38,8224.4c-30.3-1111.15-118.52-1886.71-192-2485.73-121-986.5-246.36-1548-469.33-2133.34-216.14-567.4-432.21-1116.68-960-1621.33-521.87-499-1096.79-713.66-1439.5-810.67-260.91,25.16-643,99.7-1013.84,341.34C6334,1650,5867.54,2008.69,5283.05,3776c-316.94,958.3-462.29,1707-490.67,1856-122.7,644.17-259.33,1442.25-298.67,2585"/><polygon points="7385.43 1173.33 7510.43 0 7635.43 1173.33 7385.43 1173.33"/></g></g></svg>