<svg xmlns="http://www.w3.org/2000/svg" viewBox="0 0 14785.28 15758.22"><defs><style>.cls-1{fill:#fff;}</style></defs><g id="Calque_2" data-name="Calque 2"><g id="Accessoire2W"><path class="cls-1" d="M14620.16,6485.05c-188.62-888.22-613.87-1745.58-1196.87-2424.61-805.91-1035.68-1848.46-1875.89-3017.89-2434.89-552.14-260.64-1203.73-442.4-1899.91-538.42C8491.77,483.55,7997.94,0,7390.93,0,6787.35,0,6293.51,483.55,6276.36,1087.13c-692.74,96-1344.33,277.78-1899.9,541.85C3210.45,2184.55,2167.91,3028.19,1362,4060.44,779,4736,353.74,5596.83,165.12,6485.05c-291.5,1207.16-133.75,2524.06-6.86,3580.32C244,11262.24,638.38,13073,923,14396.74l61.73,291.5,3.43,6.86c106.32,421.82,360.09,751,720.18,929.37,178.33,89.17,377.24,133.75,579.58,133.75a1413.12,1413.12,0,0,0,562.42-116.6c1419.79-607,3354-1251.74,4520-1251.74,1426.64,0,3758.65,908.8,4523.42,1210.59,411.53,164.61,840.21,154.32,1203.73-27.44,342.94-171.47,589.86-480.12,696.17-871.07l3.43-13.72c41.15-202.34,89.16-418.39,137.18-644.73,270.92-1282.61,610.44-2877.29,692.74-3974.71C14753.91,9009.11,14911.66,7692.21,14620.16,6485.05ZM7394.36,514.41c301.79,0,555.56,226.35,593.29,517.85-202.34-13.72-408.11-24-617.3-24-192.05,0-380.67,6.86-569.29,20.58C6842.22,740.76,7092.57,514.41,7394.36,514.41ZM5882,2335.44c174.9-233.2,548.71-579.57,761.33-771.62,240.06-24,480.12-34.3,723.61-34.3,260.64,0,521.27,13.72,775.05,37.73,216.06,192,583,535,757.91,768.19l3.43,3.43c730.46,939.66,1512.37,2061.09,1779.87,3261.39l3.43,13.71c284.64,991.11,99.45,2935.59,20.57,3611.19C9527.46,8930.23,8292.87,8693.6,7366.92,8693.6c-901.94,0-2119.38,233.2-3292.25,528.13-78.88-675.59-264.07-2620.08,20.58-3607.76l3.43-13.71C4366.17,4400,5151.51,3278.53,5878.55,2338.87ZM672.68,10027.65v-13.72c-120-1022-274.36-2290.86-3.43-3412.28v-6.86C840.72,5788.87,1224.81,5007,1756.38,4389.67l6.85-10.29C2521.14,3405.42,3502,2613.22,4595.94,2092c346.38-164.61,737.33-294.93,1152.29-387.52-106.31,109.74-205.77,219.48-277.78,318.93-764.77,980.82-1584.4,2160.54-1875.9,3456.87-322.37,1131.71-102.88,3244.24-27.44,3875.25-1196.87,318.94-2287.42,679-2877.29,881.36C683,10164.83,676.11,10096.24,672.68,10027.65Zm12757.47,3902.69q-72,339.51-133.75,637.87c-68.59,243.49-219.48,435.54-425.25,538.42-229.77,116.6-507.55,120-785.34,10.29C9939,14280.14,8399.18,13872,7373.78,13872c-1563.82,0-4009,991.1-4718.89,1292.89-243.49,102.88-497.27,102.88-709.9-3.43-219.48-109.74-377.23-318.94-445.82-589.86L1437.44,14287c-216.06-1001.39-521.27-2414.32-675.6-3532.31C1873,10374,5436.15,9208,7377.21,9208c1978.78,0,5548.81,1166,6660,1546.67C13896.55,11735.5,13642.77,12928.94,13430.15,13930.34Zm679-3919.84v13.72c-3.43,68.59-10.29,137.18-17.15,209.19-589.86-202.33-1680.42-559-2877.29-877.93,75.45-627.59,294.93-2743.54-27.44-3875.25-291.5-1296.33-1111.13-2472.62-1875.89-3456.87-72-96-171.48-205.76-274.36-315.5,418.39,92.59,805.92,222.91,1148.86,384.09,1097.42,521.27,2078.23,1313.47,2836.14,2287.43l6.86,10.29C13557,5003.54,13944.56,5785.45,14116,6594.79v6.86C14387,7723.07,14232.64,8992,14109.18,10010.5Z"/><path class="cls-1" d="M12476.77,13474.22c20.58,3.43,41.15,6.86,61.73,6.86,116.6,0,222.91-78.87,250.35-195.48l274.35-1135.14c34.3-140.6-51.44-277.78-188.62-312.07-140.6-34.3-277.78,51.44-312.07,188.62l-274.36,1135.14C12253.86,13302.75,12339.59,13439.93,12476.77,13474.22Z"/><circle class="cls-1" cx="12346.45" cy="14060.6" r="257.21"/></g></g></svg>