<svg xmlns="http://www.w3.org/2000/svg" viewBox="0 0 15948.35 10599.05"><defs><style>.cls-1{fill:#505050;}</style></defs><g id="Calque_2" data-name="Calque 2"><g id="Cloiud"><path class="cls-1" d="M15875.65,8000.12c-33.42,154.38-283.09,1221.55-1222.95,1933.87-549.06,416.13-1238.48,651.12-2014.76,658.29-1423.86,13.16-2847.93,3.07-4271.9,3.11-1439.13.05-2878.27,4.87-4317.37-1.25-2157-9.16-3777.9-1425.8-4025-3594.12C-185.07,5168.26,999.93,3282.39,3048.74,2763.33c168.37-42.66,350.48-177.55,450.33-322C4783.82,582.39,6560.74-259.63,8780.12,70c2147.16,318.89,3559.13,1614,4277.25,3668.09,48.6,139,209.6,296.11,349.72,336.87,707.14,205.7,1274.63,539.65,1697.54,1010.16,517.6,575.86,720.63,1254.13,786.74,1607.7C16005.2,7301.59,15920.84,7791.36,15875.65,8000.12Z"/></g></g></svg>