<svg xmlns="http://www.w3.org/2000/svg" viewBox="0 0 16179.64 16124.49"><defs><style>.cls-1{fill:none;stroke-width:500px;}.cls-1,.cls-2,.cls-3{stroke:#000;stroke-miterlimit:10;}.cls-2{stroke-width:0.25px;}.cls-3{stroke-width:100px;}</style></defs><g id="Calque_2" data-name="Calque 2"><g id="SunSet"><path class="cls-1" d="M10868.49,15633.21c-172,306.72-683.27,120.15-2906.67,121.78-2143,1.56-2627.7,175.59-2794.67-121.78-354.89-632.08,1030.78-2850.45,2850.67-2850.67C9837.29,12782.33,11224,14999.37,10868.49,15633.21Z"/><line class="cls-1" x1="3324.88" y1="10954.49" x2="5167.15" y2="12782.54"/><line class="cls-1" x1="8089.82" y1="9077.15" x2="8089.82" y2="11523.38"/><line class="cls-1" x1="12792.23" y1="10987.83" x2="11090.21" y2="12782.54"/><line class="cls-1" x1="8085.74" y1="6646.95" x2="8005.55" y2="247.05"/><line class="cls-1" x1="10539.48" y1="3881.8" x2="8153.85" y2="6473.3"/><line class="cls-1" x1="5538.12" y1="3864.02" x2="8016.52" y2="6477.74"/><rect class="cls-2" x="7824.57" y="6274.65" width="519.51" height="519.51" rx="126.47" transform="translate(6975.14 -3801.19) rotate(44.93)"/><path class="cls-2" d="M8264.75,8925.94l3.42,3.53c91.9,94.71,91.66,245.38-.53,339.81L8264,9273c-95.11,97.42-251.6,98-347.4,1.25l-3.47-3.51c-93.74-94.65-94.06-247-.73-342.09l3.66-3.73C8012,8827.24,8169.45,8827.71,8264.75,8925.94Z"/><rect class="cls-3" x="50" y="15391.82" width="16079.64" height="682.67" rx="341.33"/><path class="cls-2" d="M12961.25,10820.84l3.43,3.53c91.89,94.72,91.65,245.38-.53,339.81l-3.63,3.71c-95.1,97.42-251.59,98-347.4,1.24l-3.47-3.5c-93.73-94.65-94.06-247-.73-342.09l3.67-3.74C12708.47,10722.15,12866,10722.62,12961.25,10820.84Z"/><path class="cls-2" d="M3495.15,10776.59l3.43,3.53c91.89,94.71,91.65,245.38-.53,339.8l-3.63,3.71c-95.1,97.42-251.6,98-347.4,1.24l-3.47-3.5c-93.73-94.65-94.06-247-.73-342.09l3.67-3.74C3242.37,10677.89,3399.86,10678.36,3495.15,10776.59Z"/><path class="cls-2" d="M10358.26,4062.13l-3.47-3.56c-93-95.64-93-248,.1-343.53l3.66-3.76c96-98.61,254.23-99.38,351.2-1.7l3.52,3.53c94.88,95.57,95.41,249.63,1.18,345.84l-3.7,3.78C10613.94,4161.58,10454.73,4161.31,10358.26,4062.13Z"/><path class="cls-2" d="M7828.93,425.43l-3.47-3.56c-93-95.63-93-247.95.1-343.53l3.65-3.75c96-98.61,254.23-99.38,351.21-1.71l3.51,3.54c94.89,95.56,95.42,249.62,1.19,345.84l-3.71,3.78C8084.61,524.89,7925.39,524.61,7828.93,425.43Z"/><path class="cls-2" d="M5389.05,4068.49l-3.47-3.56c-93-95.64-93-247.95.1-343.53l3.66-3.76c96-98.61,254.23-99.38,351.2-1.7l3.51,3.53c94.89,95.57,95.42,249.63,1.19,345.84l-3.7,3.78C5644.73,4167.94,5485.52,4167.67,5389.05,4068.49Z"/></g></g></svg>