<svg xmlns="http://www.w3.org/2000/svg" viewBox="0 0 16176.24 10976.42"><defs><style>.cls-1{fill:#fff;}.cls-2{fill:#828282;}.cls-3{fill:#5d5d5d;}</style></defs><g id="Calque_2" data-name="Calque 2"><g id="evente"><path class="cls-1" d="M12903.71,6790c-27.16,131-230.1,1036.78-994,1641.35C11463.42,8784.52,10903.06,8984,10272.1,8990c-1157.31,11.17-2314.79,2.61-3472.19,2.65-1169.72,0-2339.46,4.12-3509.16-1.07C1537.54,8983.85,220.09,7781.49,19.24,5941.17-150.42,4386.49,812.75,2785.88,2478,2345.34c136.85-36.21,284.87-150.7,366-273.32C3888.28,494.29,5332.56-220.36,7136.47,59.4,8881.68,330.06,10029.33,1429.27,10613,3172.64c39.51,118,170.37,251.32,284.26,285.91,574.76,174.59,1036,458,1379.76,857.36,420.7,488.76,585.72,1064.43,639.46,1364.52C13009,6197.12,12940.44,6612.8,12903.71,6790Z"/><path class="cls-2" d="M16128.79,7888.42c-21.82,100.78-184.8,797.39-798.31,1262.37-358.4,271.64-808.43,425-1315.17,429.71-929.44,8.59-1859,2-2788.55,2-939.42,0-1878.84,3.18-2818.24-.81-1408-6-2466.08-930.72-2627.38-2346.13C5644.88,6039.88,6418.41,4808.84,7755.8,4470c109.91-27.85,228.78-115.9,294-210.21,838.64-1213.44,1998.56-1763.08,3447.3-1547.92,1401.6,208.17,2323.28,1053.58,2792.05,2394.41,31.72,90.75,136.82,193.29,228.28,219.9,461.6,134.28,832,352.27,1108.1,659.4,337.87,375.91,470.4,818.65,513.56,1049.46C16213.35,7432.45,16158.28,7752.15,16128.79,7888.42Z"/><path class="cls-3" d="M4840.94,7611.21a140.4,140.4,0,0,0-134.89-144.91A5526.63,5526.63,0,0,0,1896.5,8110.67a140.44,140.44,0,0,0-61,184l1.17,2.48A140.42,140.42,0,0,0,2021,8365.26,6510.4,6510.4,0,0,1,4698.57,7797a140.42,140.42,0,0,0,140.73-135.81Z"/><path class="cls-3" d="M1945.57,9208.57a6787.55,6787.55,0,0,1,1219.88-401.82c828.42-188.09,1553.79-188.59,2085.34-144a9579.41,9579.41,0,0,1,1141.33,176c651,140.85,817,247.58,1386.67,352,580.23,106.36,1035.19,110.61,1333.33,112,516.08,2.42,1016.09,4.76,1637.33-160,321.12-85.16,786.18-244.55,1303.37-562,82.07-60.11,92.07-173.83,35.3-238-46.91-53-134.1-66.16-204.36-24.07a5468.75,5468.75,0,0,1-1187.64,456.07c-626.2,159.85-1174.56,181.25-1573.33,165.34a7199.09,7199.09,0,0,1-1269.34-101.34c-528.08-89.63-795-195.75-1269.33-309.33-399.19-95.6-988.79-206.9-1743.11-240a8595.1,8595.1,0,0,0-3019,629.33c-68.27,48.06-90.2,138.3-53.87,208C1800.52,9188.91,1873.22,9223.16,1945.57,9208.57Z"/><path class="cls-3" d="M1945.57,10102.77A6788.35,6788.35,0,0,1,3165.45,9701c828.42-188.09,1553.79-188.59,2085.34-144a9579.41,9579.41,0,0,1,1141.33,176c651,140.85,817,247.58,1386.67,352,580.23,106.36,1035.19,110.61,1333.33,112,516.08,2.42,1016.09,4.76,1637.33-160,321.12-85.16,786.18-244.55,1303.37-562,82.07-60.11,92.07-173.83,35.3-238-46.91-53-134.1-66.16-204.36-24.07A5468.75,5468.75,0,0,1,10696.12,9669c-626.2,159.85-1174.56,181.25-1573.33,165.34A7199.09,7199.09,0,0,1,7853.45,9733c-528.08-89.62-795-195.75-1269.33-309.33-399.19-95.59-988.79-206.89-1743.11-240A8595.1,8595.1,0,0,0,1822,9813c-68.27,48.06-90.2,138.3-53.87,208C1800.52,10083.12,1873.22,10117.37,1945.57,10102.77Z"/><path class="cls-3" d="M1858,10661.22c392.08-184.25,736.31-306.52,998.16-387.8,331-102.74,666.05-206.75,1125.33-250.67,268-25.62,479.56-21.36,799.66-14.91,0,0,447.41,9,843,46.91,1062.89,101.83,1486.39,397.2,2581.33,538.67,227.52,29.39,593.32,66.26,1056,63,66.77,28.56,109.25,95,106.67,166.33-2.42,66.92-44.13,127-106.67,153.67h-928c-358.09-62.42-859.44-157.74-1456-297.67-742.58-174.18-943-255.72-1408-314.66-144.74-18.35-745.1-89-1525.33,0-803.68,91.69-1468.88,315.26-1964.48,533.77-83.06,51.62-176.93,39.17-211.52-5.77C1728,10840,1749.75,10720.84,1858,10661.22Z"/></g></g></svg>