<svg xmlns="http://www.w3.org/2000/svg" viewBox="0 0 9737.19 14625.24"><defs><style>.cls-1{fill:#84dbff;}.cls-2{fill:#fff;stroke:#000;stroke-miterlimit:10;}</style></defs><g id="Calque_2" data-name="Calque 2"><g id="Drop"><path class="cls-1" d="M4816.91,0Q3299.69,1522.43,2198,3302,806.72,5549.3,78,8206.79c-60.83,344.93-413,2556.54,1111.77,4443.88,271.48,336,1731.1,2058.83,3858.89,1971.35,2665.08-109.56,4610-2986.37,4686.19-5317,42.87-1311-506.49-2420.11-822.41-3057.93C8282.94,4976.28,7685.07,4623.39,6651.08,3200,6144,2501.93,5457.37,1443.68,4816.91,0Z"/><path class="cls-2" d="M2347.93,12226c810.36,879.17,2181.72,994.26,3429,883.87a7244,7244,0,0,1-2816-1493.33c-311.39-266.33-689.73-662.83-967.11-1223.11-401.68-811.35-365.6-1509.52-384-1507.56C1577.67,8889.26,1254.1,11039.25,2347.93,12226Z"/></g></g></svg>