<svg xmlns="http://www.w3.org/2000/svg" viewBox="0 0 15824.35 13066.29"><defs><style>.cls-1{fill:#fff;}</style></defs><g id="Calque_2" data-name="Calque 2"><g id="HumidityW"><path class="cls-1" d="M15809.82,516.83c-395.17,122.64-803,214.93-1183,373.9-950.5,397.65-1890.57,493.53-2844.6,25-835.62-410.34-1670-420.36-2515.79-8.52-921.35,448.65-1857.3,443-2778.06-4C5667,504.55,4862.19,501.51,4038.43,901,3120,1346.31,2194.29,1338.2,1255.77,920.69,860.39,744.81,429.4,649,14.59,516.83-6.61,402.3-17.22,243.7,73.65,150.23,371-155.6,1329.43,673.45,2489.67,761.05c506,38.21,1225.93-51.34,2131.86-639.25a1724.12,1724.12,0,0,1,1184.65,0C6068.6,300.32,6803.84,729.69,7846.39,750,8526.47,763.2,9206.54,567,9886.61,121.8a1838.93,1838.93,0,0,1,1316.27,0c746.7,518.13,1375.32,643.4,1840.89,646.07,1312.16,7.51,2388.6-952.85,2707-617.64C15843.79,248.17,15829.4,411.75,15809.82,516.83Z"/><path class="cls-1" d="M15809.88,4512c-395.17,122.64-803,214.92-1183,373.89-950.49,397.66-1890.56,493.53-2844.6,25-835.62-410.34-1670-420.36-2515.78-8.53-921.35,448.65-1857.31,443-2778.06-4-821.42-398.73-1626.18-401.78-2449.94-2.34C3120,5341.51,2194.35,5333.4,1255.83,4915.9,860.45,4740,429.46,4644.23,14.65,4512c-21.2-114.54-31.81-273.14,59.05-366.6,297.32-305.84,1255.79,523.21,2416,610.82,506,38.2,1225.93-51.35,2131.86-639.26a1724.09,1724.09,0,0,1,1184.64,0c262.43,178.53,997.67,607.89,2040.22,628.18,680.07,13.23,1360.14-182.94,2040.22-628.18a1839.07,1839.07,0,0,1,1316.27,0c746.7,518.14,1375.32,643.41,1840.89,646.07,1312.16,7.51,2388.59-952.85,2707-617.63C15843.85,4243.38,15829.46,4407,15809.88,4512Z"/><path class="cls-1" d="M15809.88,8463.9c-395.17,122.64-803,214.92-1183,373.89-950.49,397.66-1890.56,493.53-2844.6,25-835.62-410.34-1670-420.35-2515.78-8.52-921.35,448.65-1857.31,443-2778.06-4C5667,8451.62,4862.25,8448.57,4038.49,8848c-918.45,445.36-1844.14,437.25-2782.66,19.75C860.45,8691.87,429.46,8596.09,14.65,8463.9c-21.2-114.54-31.81-273.14,59.05-366.6,297.32-305.84,1255.79,523.21,2416,610.82,506,38.2,1225.93-51.35,2131.86-639.26a1724.09,1724.09,0,0,1,1184.64,0c262.43,178.52,997.67,607.89,2040.22,628.17,680.07,13.24,1360.14-182.93,2040.22-628.17a1839.07,1839.07,0,0,1,1316.27,0c746.7,518.14,1375.32,643.41,1840.89,646.07,1312.16,7.51,2388.59-952.85,2707-617.64C15843.85,8195.24,15829.46,8358.81,15809.88,8463.9Z"/><path class="cls-1" d="M15809.82,12342c-395.17,122.64-803,214.92-1183,373.89-950.5,397.66-1890.57,493.53-2844.6,25-835.62-410.33-1670-420.35-2515.79-8.52-921.35,448.65-1857.3,443-2778.06-4-821.42-398.73-1626.18-401.78-2449.94-2.34-918.45,445.36-1844.14,437.25-2782.66,19.75C860.39,12570,429.4,12474.19,14.59,12342c-21.2-114.54-31.81-273.14,59.06-366.6,297.31-305.84,1255.78,523.21,2416,610.82,506,38.2,1225.93-51.35,2131.86-639.26a1724.12,1724.12,0,0,1,1184.65,0c262.42,178.52,997.66,607.89,2040.21,628.18,680.08,13.23,1360.15-182.94,2040.22-628.18a1839.07,1839.07,0,0,1,1316.27,0c746.7,518.14,1375.32,643.41,1840.89,646.07,1312.16,7.51,2388.6-952.85,2707-617.63C15843.79,12073.34,15829.4,12236.91,15809.82,12342Z"/></g></g></svg>