<svg xmlns="http://www.w3.org/2000/svg" viewBox="0 0 16179.64 16124.54"><defs><style>.cls-1,.cls-2,.cls-3{fill:#fff;stroke:#fff;stroke-miterlimit:10;}.cls-1{stroke-width:500px;}.cls-2{stroke-width:0.25px;}.cls-3{stroke-width:100px;}</style></defs><g id="Calque_2" data-name="Calque 2"><g id="SunRiseW"><path class="cls-1" d="M10868.49,15633.26c-172,306.73-683.27,120.16-2906.67,121.78-2143,1.57-2627.7,175.59-2794.67-121.78-354.89-632.07,1030.78-2850.45,2850.67-2850.66C9837.29,12782.38,11224,14999.42,10868.49,15633.26Z"/><line class="cls-1" x1="3324.88" y1="10954.54" x2="5167.15" y2="12782.6"/><line class="cls-1" x1="8089.82" y1="9077.21" x2="8089.82" y2="11523.43"/><line class="cls-1" x1="12792.23" y1="10987.88" x2="11090.21" y2="12782.6"/><line class="cls-1" x1="8017.82" y1="202.54" x2="8089.82" y2="6602.54"/><line class="cls-1" x1="5560.54" y1="2964.55" x2="7949.48" y2="376.11"/><line class="cls-1" x1="10561.88" y1="2988.73" x2="8086.82" y2="371.84"/><rect class="cls-2" x="7759.33" y="55.33" width="519.51" height="519.51" rx="126.47" transform="translate(13466.63 6208.24) rotate(-135)"/><path class="cls-2" d="M8264.75,8926l3.42,3.53c91.9,94.72,91.66,245.38-.53,339.81L8264,9273c-95.11,97.42-251.6,98-347.4,1.24l-3.47-3.5c-93.74-94.65-94.06-247-.73-342.1l3.66-3.73C8012,8827.3,8169.45,8827.77,8264.75,8926Z"/><rect class="cls-3" x="50" y="15391.87" width="16079.64" height="682.67" rx="341.33"/><path class="cls-2" d="M12961.25,10820.9l3.43,3.53c91.89,94.71,91.65,245.38-.53,339.8l-3.63,3.71c-95.1,97.42-251.59,98-347.4,1.25l-3.47-3.51c-93.73-94.65-94.06-247-.73-342.09l3.67-3.74C12708.47,10722.2,12866,10722.67,12961.25,10820.9Z"/><path class="cls-2" d="M3495.15,10776.64l3.43,3.53c91.89,94.72,91.65,245.38-.53,339.81l-3.63,3.71c-95.1,97.42-251.6,98-347.4,1.24l-3.47-3.5c-93.73-94.65-94.06-247.05-.73-342.1l3.67-3.73C3242.37,10678,3399.86,10678.42,3495.15,10776.64Z"/><path class="cls-2" d="M5742,2784.45l3.46,3.57c92.9,95.75,92.66,248.07-.54,343.53l-3.66,3.75c-96.15,98.49-254.35,99-351.21,1.26l-3.5-3.55c-94.77-95.68-95.1-249.74-.75-345.84l3.71-3.77C5486.44,2684.67,5645.65,2685.15,5742,2784.45Z"/><path class="cls-2" d="M8266.67,6424.38l3.46,3.57c92.9,95.75,92.66,248.07-.54,343.53l-3.66,3.75c-96.15,98.49-254.36,99.05-351.21,1.25l-3.51-3.54c-94.76-95.68-95.09-249.74-.74-345.84l3.71-3.77C8011.11,6324.6,8170.33,6325.08,8266.67,6424.38Z"/><path class="cls-2" d="M10711.21,2784.45l3.46,3.57c92.9,95.75,92.66,248.07-.54,343.53l-3.66,3.75c-96.15,98.49-254.36,99-351.21,1.26l-3.51-3.55c-94.76-95.68-95.09-249.74-.74-345.84l3.71-3.77C10455.65,2684.67,10614.87,2685.15,10711.21,2784.45Z"/></g></g></svg>