<svg xmlns="http://www.w3.org/2000/svg" viewBox="0 0 706.88 925.87"><defs><style>.cls-1{fill:#fff;}.cls-2{fill:#ff3626;}.cls-3{fill:#17a3ef;}</style></defs><g id="Calque_2" data-name="Calque 2"><g id="White"><path class="cls-1" d="M189.32,387.49c9.79-37.81,30.89-67.65,63.6-87.56,25.43-15.48,54.2-23.29,84.23-21,66.23,5,121.82,44.77,139.63,123.31,17.61,0,36.07-3.31,52.81.65,41.94,9.93,68.93,37.78,77.4,80.14,8.7,43.52-5.9,79.8-41.21,107.16C544,607.06,518.6,611,491.8,611c-112.73-.19-225.47.09-338.21-.08a187.58,187.58,0,0,1-35.27-3.09c-58.42-11.35-104-71.87-94-133,5.05-30.72,19.2-55.37,43.27-74.06,28.55-22.17,61.16-28.34,96.36-20.34C172,382.24,179.78,384.81,189.32,387.49Zm284.5,124.66c-1-6.89-1.09-10.82-2.18-14.46-8.16-27.48-31.37-43.17-62.33-42.37-5.17.14-10.43,1.9-12.8-5.77-4.87-15.81-17.27-25.42-31-32.75C332,398.9,292,412,273.69,442.4c-4.64,7.69-7.95,16.18-12.36,25.34-10.48-21.3-25.71-34.23-48.22-39-30.64-6.51-55.93.84-75.43,25.79C118,479.73,114.52,506.77,128.47,536c3.53,7.39,8,10.46,16.52,10.26,38.34-.93,76.7-1.17,115.05-1.66,14.41-.19,18.51-3.58,19.06-17.71.16-4-2.73-8.16-5.13-14.7Z"/><path class="cls-1" d="M630.66,579.9C671.27,497.33,642,420,580.71,380.2c31.39-25.51,55.56-55.29,61.43-96.89,5.76-40.72-.47-78.66-24.24-112.64-22.3-31.89-52-53.5-90-64-38.3-10.61-74.33-3.33-110.26,12.12V7.77c163.78,23.14,303.46,180.7,288.1,378.32-17.61-9.08-34.76-17.7-51.66-26.78-7.14-3.83-13.62-3.74-20.08.87-13.27,9.47-13.2,25.07,1,33.13,19,10.79,38.48,20.72,58,30.48,5.81,2.89,7.87,6.33,6.6,12.46-9.22,44.6-23.34,87.15-51.72,123.69C642.5,566.87,636.42,573.26,630.66,579.9Z"/><path class="cls-2" d="M489.19,143c61.51.12,115.12,51.44,115.25,112.91.13,57.19-38.32,99.55-93.38,104.11-2.94.24-8.24-2.83-9-5.38-6.68-22.69-20-41.07-36.06-57.75-21.73-22.55-46.87-39.7-77.23-48.72-2.32-.68-5.33-5-5.07-7.31a126.93,126.93,0,0,1,4.91-25.17C402.11,173.81,445.2,142.88,489.19,143Z"/><path class="cls-1" d="M154.59,59.93l46.14,71.58c-15.08,15.43-29.52,30.2-44.74,45.75-13-8.77-27.77-19.28-43.15-28.85-4.79-3-11.31-5.19-16.74-4.67-9,.86-15.8,7.76-15.68,16.5.08,6.1,4.08,14,8.93,17.83,14.6,11.44,30.47,21.26,45.83,31.7l-27.86,56C91.05,263,73.53,260.07,56,257.08c-16.69-2.85-27.77,5.61-26.57,20.37.77,9.45,7.49,16.18,18.49,17.78,17.29,2.52,34.62,4.7,52,7,2.78,12.34-6.79,25.89,4.78,37.1C64.26,351.6,28.66,372.58,2.65,411.06c-7.28-69.23,0-134.57,27-197.3Q70.22,119.07,154.59,59.93Z"/><path class="cls-1" d="M53.37,773.46c0,18.54.05,36.66,0,54.77-.05,15.18-2,17-17.82,17-13.73,0-16.66-3-16.69-17.28-.08-38,0-76.09-.16-114.13,0-7.15-.17-14.52,9.07-15.51,9-1,18.09-3.26,24.59,7.48,12,19.89,25.34,39,38.17,58.45.55.83,1.65,1.29,2.61,2,12.89-19.87,25.66-39.66,38.55-59.38,6.12-9.37,18.62-13.25,28.05-7.65,3.24,1.93,6.2,7.33,6.23,11.17q.48,60.81-.22,121.65c-.11,10.41-5,13.34-18.81,13.18-11.46-.14-15.81-3.64-15.94-13.88-.24-18.56-.07-37.12-2-56.56-6.71,9.36-13.6,18.6-20.08,28.12-11,16.22-22.54,16.33-33.29.12q-9.5-14.32-19.17-28.52C56.13,774.06,55.22,774.05,53.37,773.46Z"/><path class="cls-1" d="M620.4,843.93c-40.81-1.2-73.63-34.23-72.78-73.6C548.39,734.81,577,696,623.21,697c47.38,1,72.54,37.87,71.48,74.12C693.42,814.25,664.25,842.51,620.4,843.93Zm36.6-72.8c.18-20.08-15.12-35.86-34.86-36s-34.62,14.93-34.81,35.5,13.56,34.94,33.58,35.35C640,806.41,656.83,790.14,657,771.13Z"/><path class="cls-1" d="M378.68,89.21l-50.92-2.84C324.87,58.06,322,29.57,318.93,0h59.83c.05,21.17.09,51.63,0,80"/><path class="cls-1" d="M471.66,734.65V754.4c12.08,0,23.8-.09,35.51,0,13.29.14,16,3.51,15.95,19.19-.07,13.55-1.89,15.35-15.75,15.41-11.44,0-22.89,0-35.16,0v21c13.57,0,27.44,0,41.31,0,14.33.07,16.42,2.47,16.4,18.51,0,14.09-2.23,16.43-16.1,16.48-21.18.07-42.37.14-63.55,0-10.54-.07-15-4.35-15.11-15-.24-39.5-.16-79-.27-118.5,0-9,4.55-13.2,13.23-13.22q33.93-.09,67.86,0c9.15,0,13.64,4.17,13.77,13.78.27,19.75-2.15,22.56-21.63,22.56Z"/><path class="cls-1" d="M231.36,810c14.23,0,27.76-.06,41.29,0,13.69.07,17.45,4.37,17.33,19.54-.09,11.69-4,15.48-16.57,15.55q-31.22.18-62.44.07c-12.27-.06-15.48-3.14-15.52-15.1-.12-39.12.13-78.24-.27-117.36-.11-10.26,4.14-14.41,13.93-14.38,22.25.08,44.5-.15,66.75,0,10.84.09,13.75,3.73,13.82,15.74.09,15.18-3.08,20.15-14.26,20.46-14.59.4-29.2.1-44.35.1v19.75c10.84,0,21.44,0,32,0,16.41-.06,18.81,2.1,18.83,17.12,0,17-.59,17.51-18.93,17.5H231.36Z"/><path class="cls-1" d="M343.08,734.79c-7.08,0-13.87.22-20.63-.06-8-.32-12.72-4.23-12.71-12.73,0-3.23.21-6.48-.1-9.69-1-10.47,4.24-14.12,14-14,25.14.19,50.28.3,75.41-.06,9.81-.15,13.77,4.11,13.32,13.51-.19,3.94.06,7.9-.16,11.84-.41,7.31-4.42,11.1-11.73,11.19-6.79.09-13.58,0-21.91,0v12c0,27.3.12,54.59,0,81.89,0,12.72-4.47,16.69-18,16.68-13,0-16.4-3.38-16.43-16.61q-.12-45.26-.18-90.5A18,18,0,0,0,343.08,734.79Z"/><path class="cls-1" d="M281.68,7.22c3,29.27,5.87,57.63,8.71,85.41l-55.59,21.5C219.13,90,203.61,66.06,188,42,199,31.4,263.3,7.55,281.68,7.22Z"/><path class="cls-1" d="M315.63,901.81,303.8,918.26c-4.94-7.09-8.4-12.07-11.85-17l-3.45,1.41c0,5.44.55,11-.26,16.3-.35,2.29-3.51,4.16-5.4,6.22-1.92-1.92-5.45-3.8-5.51-5.78-.47-15.29-.26-30.6-.26-47,14.62,1.9,17.22,15.9,27.48,21.82,4.92-5.47,9.9-11.39,15.35-16.84,2-2,5.1-2.94,7.7-4.37,1.24,2.71,3.47,5.39,3.56,8.13.38,12.16.55,24.36-.16,36.49-.16,2.8-4.07,5.37-6.25,8.05-1.85-2.56-4.78-4.92-5.31-7.72-.89-4.72-.24-9.72-.24-14.61Z"/><path class="cls-1" d="M241.39,919.88c-1.16,1.48-2.22,4.15-3.55,4.29-2.53.26-5.84-.14-7.7-1.66-10.15-8.26-17.8-8.13-28,0-2.23,1.79-6.42,1.12-9.71,1.58-.29-2.64-1.65-5.76-.7-7.84,6-13.31,12.24-26.57,19.24-39.37,1.11-2,9.21-3,9.58-2.26C227.81,889.32,234.39,904.32,241.39,919.88Z"/><path class="cls-1" d="M387.18,910.71c-.24,3.33.31,5.89-.7,7.44-1.82,2.81-4.58,5-6.94,7.45-1.77-2.56-5-5.07-5.07-7.7-.52-13.26-.26-26.54-.21-39.82a36.33,36.33,0,0,1,.88-5.14c9.05,0,17.95-.5,26.76.13,9.82.71,16,8.35,15.79,18.28C417.52,902,411.27,909,401,910,396.73,910.32,392.46,910.43,387.18,910.71Zm.86-28.52v17.72c6.22-1.86,11.36-3.07,16.11-5.16.81-.35.78-6.06-.26-6.6C399.33,885.78,394.25,884.4,388,882.19Z"/><path class="cls-1" d="M502.32,894.06c0,2.5.05,5,0,7.51-.52,19.78-15.23,29.55-33.46,21.44-4.29-1.9-9.46-6.9-10.05-11.07-1.59-11.21-1.16-22.76-.91-34.15,0-1.81,3.94-5.31,5-4.94,2.44.83,5.79,3.4,6,5.56.76,7.43.45,15,.35,22.5s3.7,12,10.74,11.87c6.77-.16,11-4.39,10.74-12-.23-7.15-.64-14.37.17-21.43.29-2.51,3.94-4.64,6-6.94,1.79,2.2,4.72,4.21,5.12,6.64C502.89,884,502.32,889.05,502.32,894.06Z"/><path class="cls-1" d="M567,908.6c-10.7-7.41-34.73-6.1-21.78-29.2,5.52-9.84,20.14-9,33.92.64-1.81,2.44-3.62,4.86-5.46,7.33-7-2-14-8.2-21.25,2.47,6.72,2.44,13.18,3.65,18.23,7,4.2,2.77,9.52,8.19,9.32,12.19-.24,4.82-4.77,11.2-9.24,13.69-10.11,5.64-22.28,2.34-30.23-6.51,3.17-4.57,6-7.73,12.72-4.2,3.48,1.83,8.49.75,12.81,1Z"/><path class="cls-1" d="M164.71,885.52c-7.29,0-12-.48-16.47.14-4.78.65-11.81.94-13.56,3.91-2.58,4.37-3.33,12-1.13,16.34,1.78,3.51,9.62,6.6,13.78,5.62,6.21-1.44,10.75-3.24,14.06,3.68-6.59,10.31-23.67,13-33.68,5.37-11.55-8.8-13.81-29.06-4.19-39.51C132.8,871,151.89,868.3,164.71,885.52Z"/><path class="cls-3" d="M473.83,512.15H274c2.4,6.53,5.29,10.67,5.14,14.7-.56,14.13-4.66,17.52-19.06,17.7-38.36.5-76.72.73-115.06,1.66-8.51.21-13-2.86-16.52-10.25-14-29.19-10.51-56.23,9.21-81.45,19.5-24.95,44.8-32.3,75.43-25.79,22.51,4.78,37.75,17.72,48.22,39,4.42-9.16,7.73-17.64,12.36-25.34C292,412,332,398.9,365.49,416.79c13.75,7.34,26.15,16.94,31,32.76,2.36,7.67,7.62,5.9,12.79,5.77,31-.8,54.17,14.89,62.34,42.36C472.73,501.33,472.82,505.26,473.83,512.15Z"/><g id="Calque_4_-_copie" data-name="Calque 4 - copie"><path class="cls-3" d="M132,338.32h38.52c4.77-11.51,25.32-57.41,77.63-82.37,43-20.54,82.7-15,96.59-12.45a119,119,0,0,1,36.75-85.92V122a233.42,233.42,0,0,0-180.72,65.19A227.92,227.92,0,0,0,132,338.32Z"/></g></g></g></svg>