<svg xmlns="http://www.w3.org/2000/svg" viewBox="0 0 13738.56 9238.47"><defs><style>.cls-1{fill:#369;}.cls-2{fill:#fff;}.cls-3{fill:#00d1ff;}</style></defs><g id="Calque_2" data-name="Calque 2"><g id="Neige"><path class="cls-1" d="M2355.25,1662q4.24,33.3,7.92,66.6t7.13,66.6q6.84,66.6,12.75,133.2,11.86,133.2,21.14,266.39,18.67,266.4,29.54,532.8c14.91,355.2,21.38,710.4,21.51,1065.59s-6.35,710.4-21.21,1065.59q-11.22,266.4-29.6,532.8-9.42,133.2-21.23,266.4-6,66.6-12.81,133.2-3.46,33.3-7.17,66.6t-8,66.6q-4.27-33.3-8-66.6t-7.17-66.6q-6.88-66.6-12.81-133.2-11.92-133.2-21.23-266.4-18.73-266.4-29.6-532.8c-14.85-355.19-21.26-710.39-21.21-1065.59s6.6-710.39,21.51-1065.59q11.22-266.4,29.54-532.8,9.4-133.18,21.14-266.39,6-66.6,12.75-133.2,3.43-33.3,7.13-66.6T2355.25,1662Z"/><path class="cls-1" d="M4012.25,2266.44q-23,26.74-46.44,53.08t-47,52.49q-47.18,52.27-95,103.87-95.57,103.2-192.88,204.5-194.54,202.7-394.34,399.61-399.19,394.31-814,771.44-414.2,377.85-842.79,739.89-214.69,180.6-434.2,355.9-109.92,87.48-221.43,173.21-55.85,42.76-112.19,85-28.23,21-56.62,41.92t-57.15,41.33q23-26.77,46.4-53.12t47-52.52q47.16-52.31,94.93-103.91,95.54-103.24,192.83-204.57,194.51-202.72,394.31-399.65,399.22-394.24,814.21-771.22,414.38-377.64,843-739.67,214.69-180.6,434.16-355.94,109.91-87.51,221.37-173.28,55.83-42.78,112.15-85,28.22-21.08,56.59-42T4012.25,2266.44Z"/><path class="cls-1" d="M31.26,4486.21q2.88-8.52,6.15-16.61c2.14-5.43,4.4-10.75,6.68-16,4.6-10.55,9.44-20.82,14.41-31,10-20.2,20.67-39.72,31.81-58.72a1165.69,1165.69,0,0,1,72.29-108.17c51.47-68.62,108.71-131.07,170.28-188.89S460.55,3956,532.36,3909.11a1159.55,1159.55,0,0,1,112.72-65c19.71-9.85,39.91-19.17,60.75-27.8,10.46-4.29,21-8.43,31.88-12.3,5.43-1.92,10.89-3.82,16.46-5.59s11.22-3.47,17-5q-2.87,8.52-6.11,16.64c-2.14,5.45-4.39,10.77-6.66,16.06-4.58,10.57-9.41,20.86-14.37,31-10,20.24-20.62,39.78-31.74,58.8a1156,1156,0,0,1-72.26,108.2c-51.5,68.58-108.78,131-170.48,188.68s-127.83,110.65-199.68,157.5a1168,1168,0,0,1-112.69,65c-19.69,9.86-39.87,19.21-60.69,27.87-10.44,4.29-21,8.45-31.83,12.34-5.42,1.94-10.88,3.84-16.44,5.62S37.05,4484.67,31.26,4486.21Z"/><path class="cls-1" d="M1636.17,6028.65q2.79-8.17,6-15.93c2.08-5.2,4.27-10.28,6.49-15.33,4.46-10.07,9.16-19.87,14-29.53,9.73-19.25,20.08-37.79,30.89-55.81a1061.75,1061.75,0,0,1,70.23-102.13c50-64.51,105.63-122.71,165.47-176.18s124.07-102,193.88-144.28a1053,1053,0,0,1,109.57-58c19.16-8.65,38.79-16.77,59.06-24.18,10.16-3.67,20.45-7.2,31-10.45,5.28-1.61,10.59-3.19,16-4.65s10.9-2.84,16.54-4.05q-2.79,8.19-5.94,16c-2.07,5.21-4.25,10.31-6.46,15.37-4.44,10.09-9.13,19.91-13.95,29.58-9.7,19.27-20,37.84-30.83,55.88a1052.33,1052.33,0,0,1-70.2,102.16c-50,64.47-105.7,122.63-165.66,176S1938,5884.9,1868.14,5927.14a1061.62,1061.62,0,0,1-109.54,58c-19.15,8.66-38.76,16.81-59,24.24-10.15,3.69-20.43,7.23-30.95,10.5-5.27,1.62-10.57,3.21-16,4.68S1641.79,6027.43,1636.17,6028.65Z"/><path class="cls-1" d="M4706,3158.81q-2.23,8.16-4.86,15.91c-1.72,5.2-3.56,10.29-5.42,15.34-3.75,10.09-7.76,19.91-11.9,29.6-8.35,19.32-17.36,38-26.86,56.1a1009.39,1009.39,0,0,1-62.64,103.13c-45.13,65.33-96.17,124.65-151.66,179.46s-115.62,104.9-181.62,149a999.07,999.07,0,0,1-104.14,61c-18.3,9.21-37.11,17.9-56.58,25.91-9.76,4-19.66,7.82-29.82,11.39-5.1,1.78-10.22,3.52-15.46,5.15s-10.54,3.19-16,4.57c1.47-5.45,3.08-10.75,4.82-15.94s3.54-10.3,5.39-15.37c3.73-10.1,7.73-19.94,11.86-29.64,8.32-19.34,17.31-38,26.8-56.16a999.41,999.41,0,0,1,62.6-103.17c45.16-65.3,96.25-124.58,151.87-179.25S4418.18,3311.1,4484.22,3267a1007.2,1007.2,0,0,1,104.1-61c18.29-9.22,37.07-17.93,56.52-26,9.75-4,19.64-7.84,29.78-11.43,5.08-1.79,10.2-3.54,15.43-5.18S4700.57,3160.22,4706,3158.81Z"/><path class="cls-1" d="M4716.45,4507.6q-8.32-2.16-16.27-4.73c-5.32-1.68-10.53-3.47-15.71-5.3-10.34-3.67-20.42-7.61-30.37-11.69-19.83-8.22-39-17.12-57.7-26.51a1053.35,1053.35,0,0,1-106.54-62.16c-67.7-44.88-129.52-95.82-186.93-151.31s-110.21-115.72-157.19-182a1044.89,1044.89,0,0,1-65.37-104.62c-9.95-18.4-19.41-37.32-28.21-56.92-4.37-9.83-8.6-19.8-12.58-30-2-5.13-3.92-10.29-5.75-15.57s-3.6-10.63-5.2-16.15q8.35,2.14,16.3,4.7c5.33,1.67,10.55,3.45,15.74,5.27,10.36,3.66,20.45,7.58,30.41,11.65,19.87,8.19,39.07,17.06,57.77,26.45a1043,1043,0,0,1,106.58,62.12c67.66,44.91,129.44,95.89,186.72,151.51s110.05,115.9,157,182.18a1051.13,1051.13,0,0,1,65.41,104.59c10,18.39,19.45,37.28,28.28,56.86,4.38,9.82,8.63,19.77,12.62,30,2,5.12,3.94,10.27,5.78,15.54S4714.84,4502.1,4716.45,4507.6Z"/><path class="cls-1" d="M3461,5648.44q-4.24-6.58-7.93-13.18c-2.5-4.4-4.84-8.79-7.13-13.19-4.56-8.79-8.75-17.58-12.75-26.37-7.9-17.59-14.87-35.17-21.13-52.75a836.73,836.73,0,0,1-29.55-105.49c-14.91-70.33-21.37-140.66-21.5-211s6.35-140.66,21.21-211a828.86,828.86,0,0,1,29.6-105.5c6.28-17.58,13.28-35.16,21.22-52.74,4-8.79,8.23-17.59,12.81-26.38,2.31-4.39,4.66-8.79,7.17-13.18s5.13-8.79,8-13.19q4.28,6.6,8,13.19c2.52,4.39,4.87,8.79,7.18,13.18,4.58,8.79,8.79,17.59,12.8,26.38,8,17.58,15,35.16,21.23,52.74a830.51,830.51,0,0,1,29.6,105.5c14.86,70.32,21.27,140.65,21.21,211s-6.6,140.66-21.5,211A838.41,838.41,0,0,1,3510,5543c-6.27,17.58-13.23,35.16-21.14,52.75-4,8.79-8.19,17.58-12.74,26.37-2.3,4.4-4.64,8.79-7.13,13.19S3463.85,5644.05,3461,5648.44Z"/><path class="cls-1" d="M3465.68,1860q4.25,7.07,7.93,14.13c2.49,4.72,4.83,9.43,7.13,14.14,4.56,9.43,8.75,18.86,12.74,28.28,7.91,18.85,14.87,37.7,21.14,56.56a947.75,947.75,0,0,1,29.55,113.11c14.91,75.4,21.37,150.81,21.5,226.22s-6.35,150.81-21.21,226.22a941,941,0,0,1-29.6,113.11c-6.28,18.85-13.28,37.7-21.22,56.56-4,9.42-8.23,18.85-12.81,28.27-2.31,4.72-4.66,9.43-7.18,14.14s-5.12,9.43-8,14.14q-4.28-7.07-8-14.14c-2.51-4.71-4.86-9.42-7.17-14.14-4.58-9.42-8.79-18.85-12.81-28.27-7.94-18.86-14.94-37.71-21.22-56.56a939.12,939.12,0,0,1-29.6-113.11c-14.86-75.41-21.27-150.81-21.21-226.22s6.59-150.82,21.5-226.22a947.75,947.75,0,0,1,29.55-113.11c6.26-18.86,13.23-37.71,21.13-56.56,4-9.42,8.19-18.85,12.75-28.28,2.29-4.71,4.63-9.42,7.13-14.14S3462.85,1864.72,3465.68,1860Z"/><path class="cls-1" d="M4512.48,2764.89q-8.17,4.24-16.35,7.93c-5.46,2.5-10.91,4.84-16.36,7.13-10.9,4.56-21.81,8.75-32.71,12.75-21.81,7.9-43.62,14.87-65.43,21.13a1237.6,1237.6,0,0,1-130.85,29.55c-87.23,14.91-174.47,21.37-261.7,21.5s-174.47-6.35-261.7-21.21a1226.15,1226.15,0,0,1-130.85-29.6c-21.81-6.28-43.62-13.28-65.43-21.22-10.9-4-21.8-8.23-32.71-12.81-5.45-2.31-10.9-4.66-16.35-7.17s-10.91-5.13-16.36-8q8.18-4.28,16.36-8c5.45-2.52,10.9-4.87,16.35-7.18,10.91-4.58,21.81-8.79,32.71-12.81,21.81-7.94,43.62-14.94,65.43-21.22a1228.59,1228.59,0,0,1,130.85-29.6c87.23-14.86,174.47-21.27,261.7-21.21s174.47,6.59,261.7,21.5A1240.09,1240.09,0,0,1,4381.63,2716c21.81,6.27,43.62,13.23,65.43,21.13,10.9,4,21.81,8.19,32.71,12.75,5.45,2.3,10.9,4.64,16.36,7.13S4507,2762.06,4512.48,2764.89Z"/><path class="cls-1" d="M3053.48,1714.11q-2.68,7.89-5.75,15.36c-2,5-4.13,9.91-6.27,14.77-4.31,9.69-8.85,19.11-13.52,28.38-9.41,18.47-19.42,36.22-29.89,53.44a976.14,976.14,0,0,1-68.05,97.23c-48.49,61.18-102.47,116-160.57,165.91s-120.51,94.9-188.36,133.48A967.74,967.74,0,0,1,2474.53,2275c-18.64,7.7-37.74,14.85-57.45,21.28-9.89,3.18-19.9,6.22-30.16,9-5.14,1.37-10.3,2.7-15.58,3.91s-10.6,2.34-16.09,3.29q2.67-7.92,5.72-15.41c2-5,4.1-9.92,6.24-14.79,4.29-9.71,8.82-19.14,13.48-28.43,9.38-18.5,19.37-36.28,29.83-53.51a969.26,969.26,0,0,1,68-97.27c48.52-61.14,102.54-115.87,160.76-165.69s120.66-94.72,188.55-133.26a974.59,974.59,0,0,1,106.51-52.35c18.62-7.71,37.7-14.89,57.39-21.35,9.87-3.2,19.87-6.25,30.11-9,5.13-1.38,10.29-2.71,15.55-3.93S3048,1715.07,3053.48,1714.11Z"/><path class="cls-1" d="M1594.48,1662q8.7,1.85,17,4.14c5.58,1.49,11.07,3.1,16.52,4.74,10.89,3.31,21.53,6.9,32.06,10.64,21,7.54,41.36,15.8,61.28,24.59a1141.34,1141.34,0,0,1,114.3,58.84c73.08,42.88,140.68,92.17,204.16,146.27s122.67,113.24,176.41,178.74a1129.88,1129.88,0,0,1,75.86,103.8c11.77,18.33,23.07,37.2,33.75,56.79,5.32,9.82,10.51,19.8,15.46,30.06,2.46,5.14,4.89,10.32,7.22,15.61s4.59,10.68,6.71,16.23c-5.82-1.22-11.5-2.6-17.07-4.1s-11.09-3.08-16.55-4.71c-10.91-3.3-21.57-6.87-32.1-10.6-21-7.51-41.41-15.74-61.34-24.52a1130.07,1130.07,0,0,1-114.33-58.8c-73.05-42.92-140.62-92.25-204-146.5s-122.5-113.42-176.21-178.95a1139.54,1139.54,0,0,1-75.9-103.77c-11.78-18.31-23.1-37.15-33.81-56.71-5.33-9.82-10.53-19.78-15.49-30-2.47-5.13-4.91-10.3-7.25-15.58S1596.6,1667.54,1594.48,1662Z"/><path class="cls-1" d="M250.11,2764.89c5-2.83,10.05-5.46,15.07-7.93s10-4.83,15.06-7.13c10-4.56,20.08-8.75,30.12-12.75,20.08-7.9,40.16-14.86,60.24-21.13a1065.68,1065.68,0,0,1,120.48-29.55c80.33-14.91,160.65-21.37,241-21.5s160.65,6.35,241,21.21a1055.53,1055.53,0,0,1,120.49,29.6c20.08,6.28,40.16,13.28,60.24,21.22,10,4,20.08,8.23,30.12,12.81,5,2.31,10,4.66,15.06,7.18s10,5.12,15.06,8q-7.53,4.28-15.06,8c-5,2.51-10,4.86-15.06,7.17-10,4.58-20.08,8.79-30.12,12.81-20.08,7.94-40.16,14.94-60.24,21.22A1053.43,1053.43,0,0,1,973,2843.67c-80.32,14.86-160.64,21.27-241,21.21s-160.64-6.59-241-21.5a1063.54,1063.54,0,0,1-120.48-29.55c-20.08-6.26-40.16-13.23-60.24-21.13-10-4-20.08-8.19-30.12-12.75-5-2.29-10-4.63-15.06-7.13S255.13,2767.72,250.11,2764.89Z"/><path class="cls-1" d="M656.55,2347.25q29.31,20.88,58.25,42.17t57.72,42.75q57.51,43,114.4,86.64,113.82,87.29,225.89,176.49,224.25,178.32,443.24,362.42,438.39,367.72,861.19,752.65,423.42,384.24,832.49,784.29,204.14,200.46,403.47,406.21,99.51,103.05,197.42,207.86,48.87,52.5,97.24,105.56,24.13,26.58,48.1,53.35t47.56,53.94q-29.34-20.86-58.28-42.13t-57.75-42.73Q3870,5293.78,3813,5250.13q-113.85-87.24-225.95-176.43-224.28-178.27-443.26-362.37-438.36-367.78-861-752.88Q1859.59,3574,1450.54,3174,1246.41,2973.49,1047,2767.78q-99.53-103-197.48-207.79-48.88-52.48-97.28-105.51-24.15-26.58-48.13-53.32T656.55,2347.25Z"/><path class="cls-1" d="M0,3853.39q36.8-4.24,73.6-7.92t73.6-7.14q73.61-6.82,147.21-12.74,147.2-11.87,294.4-21.14,294.41-18.67,588.81-29.54c392.54-14.91,785.08-21.38,1177.63-21.51s785.08,6.35,1177.62,21.21q294.4,11.22,588.81,29.6,147.19,9.42,294.4,21.23,73.6,6,147.21,12.81,36.79,3.45,73.6,7.17t73.6,8q-36.8,4.28-73.6,8t-73.6,7.17q-73.6,6.89-147.21,12.81-147.19,11.93-294.4,21.23-294.41,18.74-588.81,29.6-588.81,22.28-1177.62,21.21c-392.55-.13-785.09-6.6-1177.63-21.51q-294.4-11.22-588.81-29.55-147.19-9.39-294.4-21.13-73.61-6-147.21-12.75-36.79-3.43-73.6-7.13T0,3853.39Z"/><path class="cls-1" d="M0,3170.55q8.65,2.2,16.94,4.84c5.54,1.72,11,3.56,16.4,5.43,10.79,3.76,21.34,7.8,31.76,12,20.78,8.42,40.92,17.52,60.58,27.15a1151.66,1151.66,0,0,1,112.53,63.64c71.77,46,137.82,98.1,199.57,154.91s119,118.47,170.59,186.3a1140.64,1140.64,0,0,1,72.42,107.11c11.15,18.84,21.82,38.21,31.85,58.27,5,10.07,9.83,20.27,14.43,30.75,2.29,5.26,4.55,10.54,6.7,15.94s4.23,10.88,6.15,16.53q-8.67-2.19-17-4.8c-5.55-1.71-11-3.54-16.42-5.4-10.82-3.75-21.38-7.77-31.81-11.93-20.81-8.39-41-17.47-60.64-27.08a1143.56,1143.56,0,0,1-112.57-63.6c-71.73-46-137.74-98.18-199.36-155.13S183.3,3466.8,131.75,3398.94A1152.7,1152.7,0,0,1,59.3,3291.87c-11.17-18.83-21.86-38.18-31.91-58.21-5-10-9.86-20.25-14.48-30.71-2.3-5.24-4.56-10.52-6.72-15.91S1.93,3176.18,0,3170.55Z"/><path class="cls-1" d="M0,4546.18q2.88-8.52,6.14-16.62c2.15-5.43,4.4-10.74,6.69-16,4.59-10.54,9.44-20.81,14.41-30.95,10-20.21,20.67-39.72,31.8-58.73a1165.61,1165.61,0,0,1,72.3-108.16c51.47-68.62,108.71-131.07,170.28-188.9S429.28,4016,501.1,3969.08a1156.31,1156.31,0,0,1,112.72-65c19.7-9.85,39.9-19.17,60.75-27.8,10.45-4.29,21-8.43,31.88-12.3,5.43-1.93,10.89-3.82,16.46-5.59s11.21-3.48,17-5c-1.9,5.69-3.95,11.24-6.11,16.65s-4.38,10.77-6.66,16.06c-4.57,10.56-9.4,20.85-14.37,31-10,20.23-20.61,39.78-31.73,58.79a1158.13,1158.13,0,0,1-72.26,108.21c-51.51,68.58-108.79,131-170.49,188.68s-127.83,110.65-199.67,157.5a1167,1167,0,0,1-112.69,65c-19.7,9.86-39.87,19.21-60.69,27.87-10.44,4.3-21,8.46-31.83,12.35-5.43,1.93-10.88,3.83-16.44,5.62S5.79,4544.63,0,4546.18Z"/><path class="cls-1" d="M187.59,4848.4q7.89-4,15.76-7.42c5.25-2.33,10.5-4.5,15.74-6.63,10.49-4.22,21-8.07,31.44-11.74,20.93-7.23,41.84-13.52,62.72-19.11a1121.19,1121.19,0,0,1,125-25.51c83.21-12.23,166.14-16,248.87-13.46s165.24,11.7,247.48,29.23a1113.85,1113.85,0,0,1,123.12,33.6c20.48,7,40.94,14.62,61.36,23.23,10.21,4.35,20.41,8.89,30.61,13.8,5.09,2.48,10.19,5,15.27,7.67s10.18,5.46,15.26,8.48q-7.9,4-15.77,7.47c-5.25,2.34-10.5,4.52-15.74,6.66-10.49,4.25-21,8.12-31.44,11.8-20.94,7.27-41.85,13.6-62.73,19.21a1114.26,1114.26,0,0,1-125,25.56c-83.2,12.17-166.13,15.9-248.85,13.17s-165.24-11.95-247.48-29.53a1124.63,1124.63,0,0,1-123.12-33.55c-20.48-6.93-40.94-14.56-61.36-23.13-10.21-4.33-20.42-8.86-30.61-13.75-5.1-2.46-10.19-5-15.28-7.63S192.66,4851.39,187.59,4848.4Z"/><path class="cls-1" d="M1156.78,5807.17q-4.07-7.35-7.56-14.68c-2.37-4.89-4.59-9.77-6.76-14.66-4.31-9.77-8.26-19.53-12-29.28-7.42-19.5-13.89-39-19.66-58.45a989.93,989.93,0,0,1-26.6-116.58c-13-77.59-17.46-155-15.63-232.2s10.26-154.28,27.07-231.12a980.53,980.53,0,0,1,32.53-115.08c6.76-19.14,14.25-38.27,22.68-57.38,4.26-9.55,8.71-19.09,13.54-28.63,2.43-4.77,4.9-9.53,7.54-14.3s5.37-9.52,8.34-14.27q4.08,7.35,7.6,14.68c2.39,4.89,4.62,9.77,6.81,14.66,4.33,9.77,8.3,19.53,12.07,29.28,7.45,19.51,14,39,19.75,58.45a980.76,980.76,0,0,1,26.65,116.58c12.9,77.6,17.35,155,15.34,232.2s-10.51,154.27-27.37,231.11a991.9,991.9,0,0,1-32.47,115.08c-6.75,19.15-14.2,38.28-22.6,57.38-4.24,9.55-8.67,19.1-13.47,28.63-2.42,4.77-4.88,9.54-7.5,14.3S1159.73,5802.42,1156.78,5807.17Z"/><path class="cls-1" d="M3084.75,5984.33q-8.68-1.76-17-3.94c-5.57-1.42-11-3-16.48-4.55-10.86-3.19-21.48-6.65-32-10.26-20.94-7.3-41.28-15.32-61.16-23.87A1126.87,1126.87,0,0,1,2844,5884.26c-73-42-140.55-90.4-204-143.67s-122.7-111.61-176.53-176.35a1119.16,1119.16,0,0,1-76-102.7c-11.8-18.15-23.14-36.85-33.88-56.27-5.33-9.74-10.55-19.64-15.52-29.81-2.48-5.1-4.92-10.24-7.27-15.5s-4.62-10.59-6.75-16.11q8.7,1.74,17,3.91c5.58,1.41,11.06,2.95,16.51,4.52,10.88,3.17,21.51,6.62,32,10.22,21,7.26,41.33,15.25,61.22,23.79a1115.84,1115.84,0,0,1,114.16,57.42c73,42,140.49,90.48,203.85,143.89s122.55,111.79,176.34,176.57a1125.51,1125.51,0,0,1,76.07,102.67c11.81,18.13,23.18,36.8,33.94,56.19,5.35,9.73,10.57,19.61,15.56,29.77,2.49,5.09,4.94,10.22,7.29,15.46S3082.61,5978.83,3084.75,5984.33Z"/><path class="cls-1" d="M3429.75,5708.41q-4.24-6.58-7.92-13.19c-2.5-4.39-4.84-8.79-7.14-13.18-4.55-8.79-8.74-17.58-12.74-26.38-7.91-17.58-14.87-35.16-21.14-52.74a836.81,836.81,0,0,1-29.54-105.5c-14.91-70.32-21.38-140.65-21.51-211s6.35-140.66,21.21-211a830.37,830.37,0,0,1,29.6-105.49c6.28-17.58,13.28-35.16,21.23-52.75,4-8.79,8.22-17.58,12.81-26.37,2.3-4.39,4.66-8.79,7.17-13.19s5.13-8.79,8-13.18q4.27,6.58,8,13.18c2.51,4.4,4.86,8.8,7.17,13.19,4.58,8.79,8.79,17.58,12.81,26.37,7.95,17.59,14.95,35.17,21.22,52.75a828.78,828.78,0,0,1,29.61,105.49c14.85,70.33,21.26,140.66,21.21,211s-6.6,140.66-21.51,211a835.19,835.19,0,0,1-29.55,105.5c-6.26,17.58-13.22,35.16-21.13,52.74-4,8.8-8.19,17.59-12.75,26.38-2.29,4.39-4.63,8.79-7.13,13.18S3432.58,5704,3429.75,5708.41Z"/><path class="cls-1" d="M4158.4,4864.47q-5.7,4.24-11.39,7.92c-3.79,2.5-7.59,4.84-11.38,7.14-7.59,4.55-15.18,8.74-22.77,12.74-15.18,7.9-30.36,14.89-45.54,21.12a644.83,644.83,0,0,1-91.08,29.57c-60.72,14.9-121.44,21.37-182.16,21.5s-121.44-6.35-182.16-21.21a639.67,639.67,0,0,1-91.09-29.61c-15.18-6.26-30.36-13.28-45.54-21.22-7.59-4-15.18-8.22-22.77-12.8-3.79-2.31-7.59-4.67-11.38-7.18s-7.59-5.12-11.39-8q5.7-4.28,11.39-8c3.79-2.51,7.59-4.86,11.38-7.17,7.59-4.58,15.18-8.79,22.77-12.81,15.18-7.94,30.36-15,45.54-21.21a638.4,638.4,0,0,1,91.09-29.61c60.72-14.86,121.44-21.27,182.16-21.21s121.44,6.59,182.16,21.5a644.76,644.76,0,0,1,91.08,29.56c15.18,6.24,30.36,13.22,45.54,21.12,7.59,4,15.18,8.19,22.77,12.75,3.79,2.29,7.59,4.63,11.38,7.13S4154.6,4861.64,4158.4,4864.47Z"/><path class="cls-1" d="M1083.7,1894.16q4.35,7,8.15,14c2.57,4.67,5,9.35,7.35,14,4.71,9.35,9,18.71,13.19,28.07,8.2,18.73,15.46,37.47,22,56.23a948.13,948.13,0,0,1,31.32,112.64c16.09,75.18,23.74,150.48,25.06,225.89s-4,150.91-17.66,226.55a941.22,941.22,0,0,1-27.82,113.58c-6,18.95-12.69,37.91-20.34,56.88-3.86,9.49-7.92,19-12.36,28.48-2.23,4.75-4.51,9.5-6.95,14.25s-5,9.51-7.75,14.27q-4.38-7-8.2-14c-2.58-4.68-5-9.35-7.39-14-4.73-9.35-9.09-18.71-13.25-28.08-8.24-18.72-15.54-37.47-22.11-56.22a939.21,939.21,0,0,1-31.37-112.65c-16-75.17-23.64-150.48-24.76-225.88s4.22-150.92,17.94-226.56A950.44,950.44,0,0,1,1036.54,2008c6-19,12.64-37.91,20.25-56.88,3.85-9.49,7.89-19,12.3-28.48,2.22-4.75,4.48-9.5,6.91-14.25S1080.94,1898.92,1083.7,1894.16Z"/><path class="cls-2" d="M7179.64,0q4.24,68.16,7.92,136.33t7.14,136.34q6.82,136.33,12.74,272.66,11.87,272.67,21.14,545.34,18.67,545.32,29.55,1090.66,22.35,1090.67,21.5,2181.34.07,1090.66-21.21,2181.33-11.22,545.34-29.6,1090.67-9.42,272.65-21.23,545.33-6,136.33-12.8,272.67-3.47,68.16-7.18,136.33t-8,136.33q-4.28-68.16-8-136.33t-7.17-136.33q-6.87-136.33-12.81-272.67-11.93-272.67-21.22-545.33-18.75-545.34-29.6-1090.67-22.29-1090.66-21.22-2181.33.21-1090.66,21.51-2181.34,11.22-545.32,29.55-1090.66,9.39-272.67,21.13-545.34,6-136.34,12.75-272.66,3.43-68.18,7.13-136.34T7179.64,0Z"/><path class="cls-2" d="M3766.3,1280q57,46,113.66,92.46t113.13,93.06q112.93,93.27,225.24,187.22,224.63,187.89,447.53,377.69,445.89,379.5,886.53,764.79,881.7,770.1,1747.79,1557.41,866.71,786.6,1719.07,1589Q9445.06,6343.3,9866,6750.25q210.34,203.64,419.07,409.05,104.3,102.79,208.06,206.15,51.84,51.73,103.51,103.64t103,104.24q-57-46-113.7-92.42t-113.15-93q-113-93.24-225.28-187.18-224.67-187.84-447.59-377.62Q9354,6443.63,8913.35,6058.33q-881.64-770.16-1747.59-1557.62-866.52-786.83-1718.88-1589.26-425.79-401.64-846.8-808.55-210.36-203.62-419.13-409-104.31-102.76-208.1-206.1Q3921,1436.1,3869.31,1384.2T3766.3,1280Z"/><path class="cls-2" d="M10571.64,1237.33q-50.15,51.48-100.66,102.53t-101.2,101.93q-101.39,101.73-203.41,202.76-204,202.1-409.76,402.28Q9345.21,2447.3,8928.52,2842,8095.6,3631.85,7247,4404.55q-847.93,773.4-1710.29,1531Q5105.17,6313.93,4668.78,6687q-218.35,186.36-438.31,371-110.05,92.22-220.63,183.87-55.32,45.78-110.83,91.37T3787.64,7424q50.12-51.49,100.62-102.56t101.17-102q101.37-101.74,203.37-202.79,204-202.14,409.7-402.35,411.38-400.52,828.05-795.21,833-789.79,1681.71-1562.34Q7960.39,3483.61,8822.75,2726q431.56-378.37,867.91-751.5,218.32-186.39,438.24-371.06,110-92.22,220.59-183.91,55.32-45.8,110.8-91.4T10571.64,1237.33Z"/><path class="cls-2" d="M2422.3,4363.17q75.35-4.24,150.67-7.93t150.67-7.13q150.66-6.84,301.33-12.75,301.34-11.86,602.67-21.13,602.66-18.67,1205.33-29.55,1205.34-22.36,2410.67-21.51,1205.32-.08,2410.66,21.21Q10257,4295.6,10859.64,4314q301.34,9.41,602.66,21.22,150.68,6,301.34,12.81,75.33,3.46,150.66,7.17t150.67,8q-75.33,4.28-150.67,8t-150.66,7.17q-150.67,6.88-301.34,12.81-301.33,11.93-602.66,21.23Q10257,4431.09,9654.3,4442,8449,4464.24,7243.64,4463.16,6038.3,4463,4833,4441.66q-602.67-11.23-1205.33-29.55-301.33-9.4-602.67-21.14-150.66-6-301.33-12.74-75.34-3.45-150.67-7.14T2422.3,4363.17Z"/><path class="cls-2" d="M2422.3,2965.33q14.72,7.8,29,16c9.58,5.44,19.06,11,28.5,16.6q28.3,16.82,56,34.31,55.38,35,109,71.84,107.33,73.64,209.37,153c136.33,105.53,266.94,217.27,393.25,333.66s248.14,237.64,364.28,365q87.06,95.61,169.26,196.49,41,50.59,80.27,103,19.59,26.27,38.65,53.09c6.32,9,12.62,18,18.8,27.11s12.3,18.33,18.26,27.71q-14.73-7.79-29.08-16c-9.59-5.44-19.07-11-28.53-16.57q-28.32-16.8-56-34.27-55.41-34.93-109.06-71.77-107.37-73.59-209.41-153c-136.29-105.56-266.86-217.34-393-333.87s-248-237.82-364.08-365.26q-87.06-95.61-169.29-196.44-41-50.59-80.34-102.9-19.59-26.25-38.69-53.05c-6.33-9-12.63-18-18.83-27.08S2428.27,2974.69,2422.3,2965.33Z"/><path class="cls-2" d="M2422.3,5781.33q8.94-14.17,18.25-27.94c6.18-9.21,12.47-18.31,18.79-27.37q19-27.15,38.63-53.62,39.22-53,80.22-104.06,81.9-102.27,169.14-198.84c116-129.07,237.83-252,364-370.24s256.79-231.73,393.17-339.06q102.33-80.45,209.56-155.66,53.78-37.46,109.18-73.15,27.78-17.76,56.08-35c9.47-5.7,19-11.37,28.57-16.93s19.28-11,29.12-16.33q-8.91,14.19-18.22,28c-6.17,9.22-12.45,18.32-18.76,27.39q-19,27.18-38.58,53.67-39.18,53-80.16,104.13-81.86,102.32-169.1,198.88c-116.07,129-237.91,251.88-364.17,370S2991,5376.79,2854.61,5484.09q-102.33,80.43-209.52,155.7Q2591.33,5677.25,2536,5713q-27.76,17.78-56,35c-9.46,5.71-18.95,11.39-28.54,16.95S2432.13,5776,2422.3,5781.33Z"/><path class="cls-2" d="M2806.3,6400q16-3.73,32-6.9c10.67-2.15,21.32-4.15,32-6.1,21.32-3.87,42.62-7.37,63.92-10.68q63.89-9.8,127.68-17c85.08-9.7,170.06-16.57,255-21.31,169.82-9.42,339.37-10.4,508.71-5s338.47,17.31,507.33,37.64c84.42,10.22,168.78,22.59,253.05,37.81q63.2,11.48,126.31,25.33c21,4.7,42.07,9.59,63.09,14.86,10.51,2.65,21,5.34,31.52,8.19s21,5.81,31.49,9q-16,3.77-32,6.95c-10.66,2.16-21.32,4.17-32,6.14-21.32,3.89-42.62,7.41-63.92,10.74q-63.89,9.85-127.69,17.1c-85.07,9.75-170.05,16.63-255,21.36-169.82,9.37-339.37,10.29-508.7,4.76s-338.47-17.56-507.32-37.94c-84.43-10.22-168.79-22.58-253.05-37.76q-63.2-11.45-126.32-25.24c-21-4.68-42.07-9.55-63.09-14.79-10.51-2.64-21-5.32-31.52-8.16S2816.8,6403.17,2806.3,6400Z"/><path class="cls-2" d="M4790.3,8362.67q-3.87-14.93-7.17-29.84c-2.25-10-4.34-19.88-6.38-29.82-4.05-19.88-7.74-39.74-11.24-59.6-6.9-39.72-12.86-79.42-18.12-119.09-10.45-79.35-18.06-158.63-23.54-237.86-10.89-158.45-13.35-316.69-9.48-474.76s14.36-316,33.22-473.68c9.48-78.85,21.11-157.64,35.6-236.36q10.92-59,24.22-118c4.52-19.66,9.22-39.31,14.31-59,2.55-9.83,5.16-19.65,7.92-29.46s5.62-19.63,8.72-29.44q3.9,14.93,7.22,29.84c2.26,9.95,4.37,19.88,6.42,29.82,4.08,19.88,7.79,39.74,11.31,59.6,6.94,39.72,12.93,79.42,18.21,119.1,10.48,79.35,18.11,158.63,23.58,237.86,10.85,158.45,13.25,316.68,9.19,474.75s-14.6,316-33.51,473.68c-9.48,78.84-21.1,157.64-35.54,236.36-7.27,39.36-15.23,78.7-24.14,118-4.49,19.65-9.18,39.31-14.24,59-2.54,9.82-5.13,19.64-7.88,29.46S4793.38,8352.86,4790.3,8362.67Z"/><path class="cls-2" d="M5707.64,8725.33q8.67-13.41,17.72-26.4c6-8.7,12.12-17.27,18.26-25.81q18.45-25.59,37.52-50.49,38.11-49.83,77.95-97.73,79.58-95.9,164.34-185.95c112.75-120.39,231.12-234.48,353.7-343.84s249.56-213.77,382.11-311.93q99.45-73.58,203.69-141.79,52.26-33.93,106.11-66.09,27-16,54.52-31.41c9.2-5.11,18.44-10.18,27.77-15.13s18.75-9.83,28.31-14.53q-8.67,13.44-17.7,26.44c-6,8.7-12.1,17.29-18.23,25.84q-18.42,25.62-37.48,50.54-38.07,49.88-77.88,97.79-79.55,95.94-164.31,186c-112.79,120.36-231.19,234.4-353.9,343.62s-249.72,213.59-382.3,311.72q-99.47,73.56-203.65,141.82-52.26,34-106.06,66.16-27,16-54.48,31.46c-9.19,5.11-18.41,10.19-27.74,15.16S5717.19,8720.62,5707.64,8725.33Z"/><path class="cls-2" d="M8737,8725.33q-14.89-7-29.44-14.42t-28.93-15q-28.73-15.25-56.87-31.22-56.31-31.91-110.95-65.78-109.35-67.65-213.69-141.28c-139.38-97.85-273.32-202.17-403.19-311.33s-255.46-223.37-375.67-344q-90.1-90.53-175.6-186.53-42.6-48.18-83.66-98.18-20.46-25.1-40.42-50.77c-6.63-8.6-13.22-17.22-19.72-26s-12.92-17.58-19.19-26.59q14.91,7,29.47,14.38c9.73,4.91,19.35,9.94,29,15q28.75,15.23,56.92,31.18,56.34,31.85,111,65.7,109.4,67.62,213.73,141.25c139.35,97.89,273.25,202.25,403,311.55s255.31,223.56,375.49,344.22q90.1,90.54,175.63,186.5,42.61,48.15,83.73,98.11,20.46,25.06,40.45,50.72c6.64,8.58,13.24,17.2,19.74,25.94S8730.68,8716.34,8737,8725.33Z"/><path class="cls-2" d="M11915.64,2986.67q-7.69,13.51-15.78,26.65c-5.35,8.78-10.82,17.44-16.33,26.08q-16.53,25.88-33.72,51.08-34.35,50.46-70.51,99.06-72.22,97.32-149.94,189.06c-103.32,122.63-212.56,239.23-326.24,351.33s-232,219.47-356.22,320.88q-93.19,76-191.43,146.91-49.27,35.28-100.22,68.87-25.56,16.71-51.65,32.87-13.09,8-26.37,15.89t-26.93,15.32q7.68-13.55,15.74-26.69c5.35-8.79,10.81-17.46,16.3-26.11q16.51-25.89,33.68-51.13,34.32-50.49,70.45-99.12,72.2-97.35,149.9-189.1c103.35-122.59,212.64-239.15,326.45-351.11s232.19-219.3,356.42-320.68q93.21-76,191.4-146.94,49.26-35.31,100.16-68.94,25.55-16.72,51.61-32.92c8.72-5.36,17.47-10.69,26.33-15.91S11906.54,2991.65,11915.64,2986.67Z"/><path class="cls-2" d="M11958.3,5696q-13.95-7.62-27.52-15.64c-9.07-5.32-18-10.75-27-16.22q-26.76-16.43-52.87-33.51-52.26-34.16-102.72-70.16-101-71.93-196.57-149.46c-127.71-103.07-249.54-212.21-367-325.89s-230.24-232.12-337.23-356.56q-80.19-93.39-155.39-191.92-37.45-49.43-73.23-100.57-17.81-25.66-35.08-51.86c-5.73-8.77-11.42-17.57-17-26.48s-11.1-17.91-16.45-27.06q14,7.59,27.56,15.6c9.08,5.31,18,10.73,27,16.19,17.86,10.93,35.45,22.13,52.92,33.47q52.29,34.11,102.77,70.1,101,71.88,196.61,149.41c127.67,103.11,249.47,212.29,366.76,326.11s230.08,232.29,337,356.77q80.19,93.39,155.43,191.88,37.47,49.41,73.29,100.5,17.82,25.65,35.13,51.82c5.73,8.76,11.44,17.55,17,26.46S11952.94,5686.86,11958.3,5696Z"/><path class="cls-2" d="M9443.22,8160.5q-4.25-13.5-7.92-27c-2.5-9-4.84-18-7.14-27-4.55-18-8.74-36-12.74-54-7.91-36-14.87-72-21.14-108-12.45-72-22.06-144-29.55-215.95-14.9-144-21.37-287.94-21.5-431.9s6.35-287.94,21.21-431.9c7.48-72,17.11-144,29.6-215.95,6.28-36,13.28-72,21.23-108,4-18,8.22-36,12.8-54,2.31-9,4.67-18,7.18-27s5.12-18,8-27q4.27,13.49,8,27c2.51,9,4.86,18,7.17,27,4.58,18,8.79,36,12.81,54,7.95,36,14.94,72,21.22,108,12.5,72,22.13,144,29.6,215.95,14.86,144,21.27,287.93,21.22,431.9s-6.6,287.93-21.51,431.9c-7.48,72-17.1,144-29.55,215.95-6.26,36-13.22,72-21.13,108-4,18-8.19,36-12.75,54-2.29,9-4.63,18-7.13,27S9446.05,8151.5,9443.22,8160.5Z"/><path class="cls-2" d="M10934.8,6432.9q-11.65,4.24-23.3,7.92c-7.77,2.5-15.54,4.84-23.31,7.14-15.54,4.55-31.07,8.74-46.61,12.74-31.07,7.91-62.15,14.87-93.22,21.14-62.15,12.45-124.3,22.06-186.45,29.54-124.3,14.91-248.6,21.38-372.9,21.51s-248.59-6.35-372.89-21.21c-62.15-7.48-124.3-17.11-186.45-29.6-31.07-6.28-62.15-13.28-93.22-21.23-15.54-4-31.08-8.22-46.62-12.81-7.76-2.3-15.53-4.66-23.3-7.17s-15.54-5.13-23.31-8q11.66-4.27,23.31-8c7.77-2.51,15.54-4.86,23.3-7.17,15.54-4.58,31.08-8.79,46.62-12.81,31.07-7.95,62.15-14.95,93.22-21.23,62.15-12.49,124.3-22.12,186.45-29.6,124.3-14.85,248.59-21.26,372.89-21.21s248.6,6.6,372.9,21.51c62.15,7.48,124.3,17.09,186.45,29.55,31.07,6.26,62.15,13.22,93.22,21.13,15.54,4,31.07,8.19,46.61,12.75,7.77,2.29,15.54,4.63,23.31,7.13S10927,6430.07,10934.8,6432.9Z"/><path class="cls-2" d="M9452.76,405.33q4.25,14.48,7.93,28.95c2.5,9.64,4.84,19.29,7.13,28.94,4.56,19.29,8.75,38.59,12.75,57.89,7.91,38.59,14.87,77.18,21.13,115.77,12.45,77.18,22.07,154.36,29.55,231.54,14.91,154.37,21.37,308.73,21.51,463.09s-6.36,308.73-21.22,463.09c-7.47,77.18-17.1,154.36-29.6,231.55-6.28,38.59-13.27,77.18-21.22,115.77-4,19.29-8.23,38.59-12.81,57.88-2.31,9.65-4.66,19.3-7.17,28.95s-5.13,19.29-8,28.94q-4.27-14.47-8-28.94c-2.51-9.65-4.87-19.3-7.18-28.95-4.58-19.29-8.79-38.59-12.8-57.88-7.95-38.59-14.95-77.18-21.23-115.77-12.49-77.19-22.12-154.37-29.6-231.55-14.86-154.36-21.26-308.73-21.21-463.09s6.6-308.72,21.5-463.09c7.49-77.18,17.1-154.36,29.55-231.54,6.27-38.59,13.23-77.18,21.14-115.77,4-19.3,8.19-38.6,12.74-57.89,2.3-9.65,4.64-19.3,7.14-28.94S9449.93,415,9452.76,405.33Z"/><path class="cls-2" d="M11595.64,2257.69q-16.74,4.24-33.49,7.93c-11.16,2.49-22.32,4.83-33.48,7.13-22.32,4.56-44.64,8.75-67,12.75q-67,11.85-133.93,21.13c-89.29,12.45-178.57,22.07-267.86,29.55-178.57,14.91-357.15,21.37-535.72,21.5s-357.15-6.35-535.72-21.21c-89.28-7.48-178.57-17.11-267.86-29.6q-67-9.42-133.93-21.22c-22.32-4-44.64-8.23-67-12.81-11.16-2.31-22.32-4.66-33.48-7.17s-22.33-5.13-33.49-8q16.74-4.28,33.49-8c11.16-2.51,22.32-4.86,33.48-7.17,22.32-4.58,44.64-8.79,67-12.81q67-11.91,133.93-21.22c89.29-12.49,178.58-22.12,267.86-29.6,178.57-14.86,357.15-21.27,535.72-21.21s357.15,6.59,535.72,21.5c89.29,7.48,178.57,17.1,267.86,29.55q67,9.39,133.93,21.13c22.32,4,44.64,8.19,67,12.75,11.16,2.29,22.32,4.64,33.48,7.13S11584.48,2254.86,11595.64,2257.69Z"/><path class="cls-2" d="M8609,106.67q-8.4,12.8-17.17,25.15c-5.82,8.28-11.75,16.44-17.7,24.56q-17.88,24.33-36.37,48-36.94,47.28-75.58,92.6Q8385,387.67,8302.71,472.48C8193.3,585.87,8078.39,692.85,7959.37,795S7717,994.33,7588.23,1085.12q-96.63,68-197.92,130.63-50.81,31.13-103.15,60.44-26.25,14.57-53,28.55c-8.95,4.62-17.92,9.22-27,13.69s-18.23,8.87-27.52,13.08q8.38-12.81,17.14-25.19c5.81-8.29,11.72-16.46,17.67-24.59,11.9-16.24,24.05-32.19,36.33-48q36.92-47.32,75.52-92.67,77.14-90.78,159.41-175.58c109.44-113.35,224.38-220.29,343.53-322.32S8071.75,444,8200.56,353.28q96.65-68,197.9-130.67,50.78-31.14,103.08-60.51,26.24-14.58,53-28.59c8.94-4.64,17.91-9.24,27-13.72S8599.68,110.9,8609,106.67Z"/><path class="cls-2" d="M5622.3,0q14.93,7.17,29.49,14.78c9.73,5,19.36,10.19,29,15.38q28.77,15.61,56.95,31.92,56.37,32.6,111.06,67.16,109.47,69,213.87,144C6202.11,372.85,6336.09,478.9,6466,589.76s255.43,226.74,375.55,349q90,91.75,175.43,188.94,42.54,48.76,83.54,99.35,20.41,25.39,40.34,51.35c6.62,8.69,13.2,17.41,19.68,26.25s12.89,17.77,19.15,26.87q-15-7.15-29.52-14.74t-29-15.35q-28.8-15.59-57-31.88Q7007.73,1237,6953,1202.45q-109.52-69-213.9-143.94C6599.67,958.85,6465.73,852.76,6336,741.76s-255.27-226.94-375.36-349.23q-90-91.74-175.46-188.89-42.57-48.75-83.6-99.29Q5681.13,79,5661.18,53.06c-6.62-8.68-13.21-17.4-19.69-26.23S5628.58,9.09,5622.3,0Z"/><path class="cls-2" d="M4814.33,405.33q4.47,14.42,8.38,28.82c2.65,9.61,5.14,19.22,7.59,28.83,4.86,19.23,9.35,38.46,13.65,57.69,8.52,38.47,16.08,77,22.95,115.44,13.66,77,24.49,154,33.18,231.08,17.33,154.13,26.22,308.39,28.78,462.75s-1.51,308.83-13.94,463.42c-6.27,77.3-14.68,154.64-26,232q-8.51,58-19.41,116.11c-3.71,19.36-7.61,38.72-11.89,58.09-2.16,9.68-4.36,19.36-6.72,29s-4.82,19.38-7.52,29.07q-4.5-14.4-8.43-28.82c-2.66-9.61-5.17-19.22-7.63-28.83-4.88-19.22-9.39-38.45-13.71-57.68q-12.82-57.71-23-115.44c-13.7-77-24.55-154-33.23-231.08-17.28-154.13-26.12-308.39-28.48-462.76s1.74-308.83,14.23-463.43c6.26-77.29,14.67-154.63,25.9-232,5.66-38.69,12-77.39,19.32-116.11,3.69-19.36,7.58-38.72,11.83-58.08,2.15-9.69,4.34-19.37,6.68-29.06S4811.65,415,4814.33,405.33Z"/><path class="cls-2" d="M2870.3,2257.69q15.42-4.24,30.83-7.93c10.28-2.49,20.56-4.84,30.83-7.13,20.56-4.56,41.11-8.75,61.66-12.75q61.66-11.85,123.32-21.13c82.22-12.45,164.43-22.07,246.64-29.55,164.43-14.91,328.86-21.37,493.28-21.5s328.85,6.35,493.28,21.21c82.21,7.48,164.43,17.11,246.64,29.6q61.67,9.42,123.32,21.22c20.55,4,41.11,8.23,61.66,12.81,10.28,2.31,20.55,4.66,30.83,7.17s20.55,5.13,30.83,8q-15.42,4.28-30.83,8c-10.28,2.51-20.55,4.86-30.83,7.17-20.55,4.58-41.11,8.79-61.66,12.81q-61.67,11.91-123.32,21.22c-82.21,12.49-164.43,22.12-246.64,29.6-164.43,14.86-328.85,21.27-493.28,21.21s-328.85-6.59-493.28-21.5c-82.21-7.48-164.42-17.1-246.64-29.55q-61.65-9.39-123.32-21.13c-20.55-4-41.1-8.19-61.66-12.75-10.27-2.3-20.55-4.64-30.83-7.13S2880.58,2260.52,2870.3,2257.69Z"/><path class="cls-2" d="M7115.64,122.76q4.24,68.16,7.92,136.33t7.14,136.33q6.82,136.33,12.74,272.67,11.87,272.67,21.14,545.33,18.67,545.34,29.55,1090.67,22.35,1090.66,21.5,2181.33.07,1090.66-21.21,2181.34-11.22,545.33-29.6,1090.66-9.42,272.67-21.23,545.34-6,136.33-12.8,272.66-3.47,68.18-7.18,136.34t-8,136.33q-4.28-68.16-8-136.33t-7.17-136.34q-6.87-136.33-12.81-272.66-11.93-272.67-21.22-545.34-18.75-545.33-29.6-1090.66-22.29-1090.67-21.22-2181.34.21-1090.66,21.51-2181.33,11.22-545.34,29.55-1090.67,9.39-272.65,21.13-545.33,6-136.33,12.75-272.67,3.43-68.16,7.13-136.33T7115.64,122.76Z"/><path class="cls-2" d="M3702.3,1402.76q57,46,113.67,92.46t113.12,93q112.93,93.27,225.24,187.23,224.63,187.89,447.53,377.69,445.89,379.5,886.53,764.78,881.7,770.12,1747.79,1557.41,866.71,786.61,1719.07,1589Q9381.06,6466.06,9802,6873q210.34,203.64,419.07,409.05,104.3,102.79,208.06,206.15,51.84,51.72,103.51,103.64t103,104.24q-57-46-113.7-92.43t-113.15-93q-113-93.24-225.28-187.18-224.67-187.85-447.59-377.62Q9290,6566.39,8849.35,6181.09q-881.64-770.16-1747.59-1557.63-866.52-786.81-1718.88-1589.25-425.79-401.64-846.8-808.55Q4325.72,2022,4117,1816.68q-104.31-102.78-208.1-206.11Q3857,1558.86,3805.31,1507T3702.3,1402.76Z"/><path class="cls-2" d="M10507.64,1360.09q-50.15,51.47-100.66,102.52t-101.2,101.94q-101.39,101.71-203.41,202.75-204,202.1-409.76,402.29Q9281.21,2570,8864.52,2964.75,8031.6,3754.61,7183,4527.31q-847.93,773.38-1710.29,1531-431.55,378.38-867.94,751.46-218.35,186.38-438.31,371-110.06,92.2-220.63,183.87Q3890.52,7410.39,3835,7456t-111.37,90.78q50.12-51.49,100.62-102.56t101.17-102q101.37-101.74,203.37-202.8,204-202.14,409.7-402.35,411.38-400.5,828.05-795.2,833-789.79,1681.71-1562.34,848.13-773.19,1710.49-1530.78,431.56-378.37,867.91-751.5,218.32-186.39,438.24-371.05,110-92.24,220.59-183.91,55.32-45.79,110.8-91.4T10507.64,1360.09Z"/><path class="cls-2" d="M2358.3,4485.92q75.35-4.24,150.67-7.92t150.67-7.14Q2810.3,4464,2961,4458.12q301.34-11.86,602.67-21.14,602.66-18.67,1205.33-29.55,1205.34-22.35,2410.67-21.5,1205.32-.08,2410.66,21.21,602.67,11.22,1205.34,29.6,301.34,9.42,602.66,21.23,150.68,6,301.34,12.81,75.33,3.45,150.66,7.17t150.67,8q-75.33,4.28-150.67,8t-150.66,7.17q-150.67,6.87-301.34,12.81-301.33,11.93-602.66,21.22-602.67,18.75-1205.34,29.61Q8385,4587,7179.64,4585.92q-1205.34-.21-2410.67-21.51-602.67-11.22-1205.33-29.55-301.33-9.39-602.67-21.13-150.66-6-301.33-12.75-75.34-3.43-150.67-7.13T2358.3,4485.92Z"/><path class="cls-2" d="M2358.3,3088.09q14.72,7.8,29,16c9.58,5.44,19.06,11,28.5,16.6q28.3,16.82,56,34.31,55.38,35,109,71.83,107.33,73.65,209.37,153c136.33,105.53,266.94,217.27,393.25,333.65s248.14,237.65,364.28,365.05q87.06,95.61,169.26,196.48,41,50.61,80.27,103,19.59,26.28,38.65,53.1c6.32,9,12.62,18,18.8,27.11s12.3,18.33,18.26,27.7q-14.73-7.77-29.08-16c-9.59-5.43-19.07-11-28.53-16.57q-28.32-16.78-56-34.27-55.41-34.92-109.06-71.76-107.37-73.6-209.41-153c-136.29-105.57-266.86-217.34-393-333.87s-248-237.82-364.08-365.26q-87.06-95.61-169.29-196.45-41-50.58-80.34-102.89-19.59-26.25-38.69-53c-6.33-9-12.63-18-18.83-27.08S2364.27,3097.45,2358.3,3088.09Z"/><path class="cls-2" d="M2358.3,5904.09q8.94-14.17,18.25-27.95c6.18-9.2,12.47-18.3,18.79-27.36q19-27.15,38.63-53.62,39.22-53,80.22-104.07,81.9-102.27,169.14-198.84c116-129.06,237.83-252,364-370.24s256.78-231.72,393.16-339.05q102.33-80.46,209.56-155.67,53.78-37.44,109.18-73.14,27.78-17.76,56.08-35c9.47-5.7,19-11.37,28.57-16.92s19.28-11,29.12-16.34q-8.91,14.2-18.22,28c-6.17,9.22-12.45,18.33-18.76,27.4q-19,27.18-38.58,53.67-39.18,53-80.16,104.13-81.86,102.3-169.1,198.87c-116.07,129-237.91,251.89-364.17,370S2927,5499.55,2790.61,5606.84q-102.33,80.44-209.52,155.7Q2527.33,5800,2472,5835.75q-27.76,17.79-56,35-14.19,8.56-28.54,16.95T2358.3,5904.09Z"/><path class="cls-2" d="M2742.3,6522.76q16-3.73,32-6.9c10.67-2.15,21.32-4.15,32-6.1,21.32-3.87,42.62-7.37,63.92-10.68q63.89-9.8,127.68-17c85.08-9.71,170.06-16.58,255-21.31,169.82-9.42,339.37-10.4,508.71-5.05S4100,6473,4268.9,6493.36c84.42,10.22,168.78,22.58,253.05,37.81q63.2,11.47,126.31,25.33c21,4.69,42.07,9.59,63.09,14.85,10.51,2.65,21,5.35,31.52,8.2s21,5.81,31.49,9q-16,3.75-32,6.94c-10.66,2.17-21.32,4.18-32,6.14-21.32,3.9-42.62,7.42-63.92,10.75q-63.89,9.85-127.69,17.1c-85.07,9.74-170.05,16.63-255,21.36-169.82,9.37-339.37,10.29-508.7,4.75s-338.47-17.55-507.32-37.94c-84.43-10.22-168.79-22.57-253.05-37.75q-63.2-11.46-126.32-25.24c-21-4.68-42.07-9.56-63.09-14.8-10.51-2.63-21-5.31-31.52-8.15S2752.8,6525.93,2742.3,6522.76Z"/><path class="cls-2" d="M4726.3,8485.42q-3.87-14.93-7.17-29.84c-2.25-9.94-4.34-19.88-6.38-29.82-4.05-19.87-7.74-39.74-11.24-59.6-6.9-39.71-12.86-79.41-18.12-119.09-10.45-79.35-18.06-158.63-23.54-237.85-10.89-158.45-13.35-316.69-9.48-474.77s14.36-316,33.22-473.68c9.48-78.84,21.11-157.64,35.6-236.36q10.92-59,24.22-118c4.52-19.66,9.22-39.31,14.31-59,2.55-9.82,5.16-19.64,7.92-29.45s5.62-19.63,8.72-29.44q3.9,14.93,7.22,29.84c2.26,9.94,4.37,19.88,6.42,29.82,4.08,19.88,7.79,39.74,11.31,59.6,6.94,39.72,12.93,79.42,18.21,119.09,10.48,79.36,18.11,158.64,23.58,237.86,10.85,158.45,13.25,316.69,9.19,474.76s-14.6,316-33.51,473.67c-9.48,78.85-21.1,157.64-35.54,236.36-7.27,39.36-15.23,78.71-24.14,118-4.49,19.66-9.18,39.31-14.24,59-2.54,9.82-5.13,19.64-7.88,29.46S4729.38,8475.62,4726.3,8485.42Z"/><path class="cls-2" d="M5643.64,8848.09q8.67-13.41,17.72-26.41t18.26-25.81c12.3-17.06,24.85-33.84,37.52-50.49q38.11-49.83,77.95-97.72,79.58-95.9,164.34-186c112.75-120.39,231.12-234.47,353.7-343.83s249.56-213.77,382.11-311.94q99.45-73.56,203.69-141.78,52.26-33.94,106.11-66.1c18-10.65,36.14-21.17,54.52-31.4,9.2-5.11,18.44-10.18,27.77-15.13s18.75-9.83,28.31-14.53q-8.67,13.42-17.7,26.44c-6,8.7-12.1,17.29-18.23,25.84q-18.42,25.62-37.48,50.54-38.07,49.86-77.88,97.79-79.55,95.94-164.31,186c-112.79,120.36-231.19,234.4-353.9,343.62s-249.72,213.59-382.3,311.71q-99.47,73.57-203.65,141.83-52.26,33.94-106.06,66.16-27,16-54.48,31.45c-9.19,5.12-18.41,10.2-27.74,15.16S5653.19,8843.38,5643.64,8848.09Z"/><path class="cls-2" d="M8673,8848.09q-14.89-7-29.44-14.42c-9.72-4.92-19.34-10-28.93-15q-28.73-15.26-56.87-31.22-56.31-31.91-110.95-65.78-109.35-67.65-213.69-141.28c-139.38-97.86-273.32-202.17-403.19-311.33s-255.46-223.38-375.67-344q-90.1-90.52-175.6-186.53-42.6-48.18-83.66-98.18-20.46-25.09-40.42-50.77c-6.63-8.6-13.22-17.23-19.72-26s-12.92-17.58-19.19-26.58q14.91,7,29.47,14.38c9.73,4.91,19.35,9.94,29,15,19.17,10.15,38.11,20.59,56.92,31.17q56.34,31.86,111,65.71,109.4,67.62,213.73,141.24c139.35,97.9,273.25,202.25,403,311.56s255.31,223.56,375.49,344.22q90.1,90.53,175.63,186.49,42.61,48.17,83.73,98.11Q8614,8770,8634,8795.6c6.64,8.58,13.24,17.2,19.74,25.94S8666.68,8839.1,8673,8848.09Z"/><path class="cls-2" d="M11851.64,3109.42q-7.69,13.53-15.78,26.65c-5.35,8.78-10.82,17.45-16.33,26.09q-16.53,25.86-33.72,51.08-34.35,50.45-70.51,99.06-72.22,97.3-149.94,189.06c-103.32,122.62-212.56,239.23-326.24,351.32s-232,219.48-356.22,320.89q-93.19,76-191.43,146.9-49.27,35.29-100.22,68.88-25.56,16.71-51.65,32.87c-8.73,5.35-17.5,10.68-26.37,15.89s-17.82,10.34-26.93,15.31q7.68-13.55,15.74-26.68c5.35-8.79,10.81-17.47,16.3-26.11q16.51-25.91,33.68-51.13,34.3-50.49,70.45-99.13,72.2-97.35,149.9-189.09c103.35-122.59,212.64-239.16,326.45-351.12s232.19-219.3,356.42-320.67q93.21-76,191.4-146.94,49.26-35.31,100.16-68.94,25.55-16.72,51.61-32.92c8.72-5.36,17.47-10.7,26.33-15.92S11842.54,3114.41,11851.64,3109.42Z"/><path class="cls-2" d="M11894.3,5818.76q-13.95-7.62-27.52-15.65c-9.07-5.31-18-10.74-27-16.21q-26.76-16.42-52.87-33.51-52.26-34.16-102.72-70.17-101-71.93-196.57-149.45c-127.71-103.07-249.54-212.21-367-325.9s-230.24-232.11-337.23-356.56q-80.19-93.37-155.39-191.91-37.45-49.44-73.23-100.57-17.81-25.66-35.08-51.86c-5.73-8.77-11.42-17.57-17-26.49s-11.1-17.9-16.45-27.06q14,7.6,27.56,15.61c9.08,5.31,18,10.73,27,16.19,17.86,10.93,35.45,22.13,52.92,33.47q52.29,34.11,102.77,70.09,101,71.88,196.61,149.42c127.67,103.11,249.47,212.29,366.76,326.11s230.08,232.29,337,356.77q80.19,93.39,155.43,191.88,37.47,49.41,73.29,100.5,17.82,25.65,35.13,51.82c5.73,8.76,11.44,17.55,17,26.45S11888.94,5809.61,11894.3,5818.76Z"/><path class="cls-2" d="M9379.22,8283.26q-4.25-13.5-7.92-27c-2.5-9-4.84-18-7.14-27-4.55-18-8.74-36-12.74-54-7.91-36-14.87-72-21.14-108-12.45-72-22.06-144-29.55-216-14.9-144-21.37-287.94-21.5-431.91s6.35-287.93,21.21-431.9c7.48-72,17.11-144,29.6-215.95,6.28-36,13.28-72,21.23-108,4-18,8.22-36,12.8-54,2.31-9,4.67-18,7.18-27s5.12-18,8-27q4.27,13.5,8,27c2.51,9,4.86,18,7.17,27,4.58,18,8.79,36,12.81,54,7.95,36,14.94,72,21.22,108,12.49,72,22.13,144,29.6,215.95,14.86,144,21.27,287.94,21.22,431.9s-6.6,287.94-21.51,431.91c-7.48,72-17.1,144-29.55,216-6.26,36-13.22,72-21.13,108-4,18-8.19,36-12.75,54-2.29,9-4.63,18-7.13,27S9382.05,8274.26,9379.22,8283.26Z"/><path class="cls-2" d="M10870.8,6555.65q-11.64,4.24-23.3,7.93c-7.77,2.5-15.54,4.84-23.31,7.13-15.54,4.56-31.07,8.75-46.61,12.75-31.07,7.91-62.15,14.87-93.22,21.13-62.15,12.45-124.3,22.07-186.45,29.55-124.3,14.91-248.6,21.37-372.9,21.51s-248.59-6.36-372.89-21.22c-62.15-7.47-124.3-17.1-186.45-29.6-31.07-6.28-62.15-13.27-93.22-21.22-15.54-4-31.08-8.23-46.62-12.81-7.76-2.31-15.53-4.66-23.3-7.17s-15.54-5.13-23.31-8q11.66-4.27,23.31-8c7.77-2.51,15.54-4.87,23.3-7.18,15.54-4.58,31.08-8.79,46.62-12.8,31.07-7.95,62.15-14.95,93.22-21.23,62.15-12.49,124.3-22.12,186.45-29.6,124.3-14.86,248.59-21.26,372.89-21.21s248.6,6.6,372.9,21.5c62.15,7.49,124.3,17.1,186.45,29.55,31.07,6.27,62.15,13.23,93.22,21.14,15.54,4,31.07,8.19,46.61,12.74,7.77,2.3,15.54,4.64,23.31,7.14S10863,6552.82,10870.8,6555.65Z"/><path class="cls-2" d="M9388.76,528.09q4.25,14.48,7.93,28.94c2.5,9.65,4.84,19.3,7.13,29,4.56,19.29,8.75,38.59,12.75,57.88,7.91,38.59,14.87,77.18,21.13,115.77,12.45,77.19,22.07,154.37,29.55,231.55,14.91,154.36,21.37,308.73,21.51,463.09s-6.36,308.72-21.22,463.09c-7.47,77.18-17.1,154.36-29.6,231.54q-9.41,57.88-21.22,115.77c-4,19.3-8.23,38.6-12.81,57.89-2.31,9.65-4.66,19.3-7.17,28.94s-5.13,19.3-8,28.95q-4.27-14.47-8-28.95c-2.51-9.64-4.87-19.29-7.18-28.94-4.58-19.29-8.79-38.59-12.8-57.89-7.95-38.59-14.95-77.18-21.23-115.77-12.49-77.18-22.12-154.36-29.6-231.54-14.86-154.37-21.26-308.73-21.21-463.09s6.6-308.73,21.5-463.09c7.49-77.18,17.1-154.36,29.55-231.55,6.27-38.59,13.23-77.18,21.14-115.77,4-19.29,8.19-38.59,12.74-57.88,2.3-9.65,4.64-19.3,7.14-29S9385.93,537.74,9388.76,528.09Z"/><path class="cls-2" d="M11531.64,2380.45q-16.74,4.25-33.49,7.92c-11.16,2.5-22.32,4.84-33.48,7.14-22.32,4.55-44.64,8.74-67,12.74-44.65,7.91-89.29,14.87-133.93,21.14-89.29,12.45-178.57,22.06-267.86,29.55-178.57,14.9-357.15,21.37-535.72,21.5s-357.15-6.35-535.72-21.21c-89.28-7.48-178.57-17.11-267.86-29.6q-67-9.42-133.93-21.23c-22.32-4-44.64-8.22-67-12.8-11.16-2.31-22.32-4.67-33.48-7.18s-22.33-5.12-33.49-8q16.74-4.27,33.49-8c11.16-2.51,22.32-4.86,33.48-7.17,22.32-4.58,44.64-8.79,67-12.81q67-11.92,133.93-21.22c89.29-12.5,178.58-22.13,267.86-29.61,178.57-14.85,357.15-21.26,535.72-21.21s357.15,6.6,535.72,21.51c89.29,7.48,178.57,17.1,267.86,29.55q67,9.39,133.93,21.13c22.32,4,44.64,8.19,67,12.75,11.16,2.29,22.32,4.63,33.48,7.13S11520.48,2377.62,11531.64,2380.45Z"/><path class="cls-2" d="M8545,229.42q-8.4,12.79-17.17,25.16c-5.82,8.28-11.75,16.43-17.7,24.56q-17.88,24.32-36.37,47.95-36.94,47.28-75.58,92.6Q8321,510.43,8238.71,595.23C8129.3,708.62,8014.39,815.6,7895.37,917.77S7653,1117.09,7524.23,1207.88q-96.63,68-197.92,130.63-50.81,31.13-103.15,60.43c-17.5,9.71-35.13,19.28-53,28.55-8.95,4.63-17.92,9.22-27,13.7s-18.23,8.86-27.52,13.08q8.38-12.81,17.14-25.2t17.67-24.58c11.9-16.24,24.05-32.19,36.33-48q36.92-47.33,75.52-92.67,77.14-90.78,159.41-175.58C7531.15,974.88,7646.09,868,7765.24,765.92S8007.75,566.79,8136.56,476q96.64-68,197.9-130.67,50.78-31.14,103.08-60.51c17.49-9.72,35.11-19.3,53-28.6,8.94-4.63,17.91-9.23,27-13.72S8535.68,233.65,8545,229.42Z"/><path class="cls-2" d="M5558.3,122.76q14.93,7.17,29.49,14.78c9.73,5,19.36,10.19,29,15.38q28.77,15.62,56.95,31.92,56.37,32.6,111.06,67.16,109.47,69,213.87,144c139.47,99.63,273.45,205.67,403.31,316.53s255.43,226.75,375.55,349q90,91.74,175.43,188.94,42.54,48.77,83.54,99.35,20.41,25.38,40.34,51.34,9.93,13,19.68,26.26t19.15,26.87q-15-7.15-29.52-14.74c-9.74-5-19.38-10.18-29-15.36q-28.8-15.57-57-31.87-56.42-32.55-111.13-67.09-109.52-69-213.9-143.94C6535.67,1081.6,6401.73,975.51,6272,864.51s-255.27-226.93-375.36-349.22q-90-91.75-175.46-188.9-42.57-48.75-83.6-99.28-20.44-25.37-40.39-51.3c-6.62-8.68-13.21-17.39-19.69-26.22S5564.58,131.84,5558.3,122.76Z"/><path class="cls-2" d="M4750.33,528.09q4.47,14.4,8.38,28.82c2.65,9.61,5.14,19.22,7.59,28.83,4.86,19.22,9.35,38.45,13.65,57.69,8.52,38.46,16.08,76.94,22.95,115.44,13.66,77,24.49,154,33.18,231.08,17.33,154.13,26.22,308.39,28.78,462.75s-1.51,308.82-13.94,463.42c-6.27,77.3-14.68,154.63-26,232q-8.51,58-19.41,116.11c-3.71,19.35-7.61,38.72-11.89,58.08-2.16,9.69-4.36,19.37-6.72,29.06s-4.82,19.37-7.52,29.07q-4.5-14.41-8.43-28.82c-2.66-9.61-5.17-19.22-7.63-28.83-4.88-19.22-9.39-38.45-13.71-57.69q-12.82-57.69-23-115.44c-13.7-77-24.55-154-33.23-231.08-17.28-154.13-26.12-308.39-28.48-462.75s1.74-308.83,14.23-463.43c6.26-77.3,14.67-154.63,25.9-232,5.66-38.69,12-77.39,19.32-116.1,3.69-19.36,7.58-38.72,11.83-58.09,2.15-9.68,4.34-19.37,6.68-29.05S4747.65,537.78,4750.33,528.09Z"/><path class="cls-2" d="M2806.3,2380.45q15.42-4.24,30.83-7.93c10.28-2.5,20.56-4.84,30.83-7.13,20.56-4.56,41.11-8.75,61.66-12.75,41.11-7.91,82.22-14.87,123.32-21.13,82.22-12.45,164.43-22.07,246.64-29.55,164.43-14.91,328.86-21.37,493.28-21.51s328.85,6.36,493.28,21.21c82.21,7.48,164.43,17.11,246.64,29.61,41.11,6.28,82.21,13.27,123.32,21.22,20.55,4,41.11,8.23,61.66,12.81,10.28,2.31,20.55,4.66,30.83,7.17s20.55,5.13,30.83,8q-15.42,4.28-30.83,8c-10.28,2.51-20.55,4.87-30.83,7.18-20.55,4.58-41.11,8.79-61.66,12.8q-61.67,11.92-123.32,21.23c-82.21,12.49-164.43,22.12-246.64,29.6-164.43,14.86-328.85,21.26-493.28,21.21s-328.85-6.6-493.28-21.5c-82.21-7.49-164.42-17.1-246.64-29.55-41.1-6.27-82.21-13.23-123.32-21.14-20.55-4-41.1-8.19-61.66-12.74-10.27-2.3-20.55-4.64-30.83-7.14S2816.58,2383.28,2806.3,2380.45Z"/><path class="cls-3" d="M11377.35,4871.82q4.25,33.3,7.93,66.6t7.13,66.6q6.84,66.6,12.75,133.2,11.86,133.2,21.13,266.39,18.67,266.4,29.55,532.8c14.91,355.2,21.37,710.39,21.51,1065.59s-6.36,710.4-21.22,1065.59q-11.2,266.4-29.6,532.8-9.42,133.2-21.22,266.4-6,66.6-12.81,133.2-3.47,33.3-7.17,66.6t-8,66.6q-4.27-33.3-8-66.6t-7.18-66.6q-6.87-66.6-12.8-133.2-11.92-133.2-21.23-266.4-18.73-266.4-29.6-532.8c-14.86-355.19-21.26-710.39-21.21-1065.59s6.6-710.39,21.5-1065.59q11.24-266.4,29.55-532.8,9.41-133.2,21.14-266.39,6-66.6,12.74-133.2,3.45-33.3,7.14-66.6T11377.35,4871.82Z"/><path class="cls-3" d="M13034.36,5476.26q-23,26.74-46.44,53.08t-47,52.49q-47.18,52.28-95,103.87-95.56,103.2-192.88,204.5-194.55,202.7-394.34,399.61-399.19,394.3-814,771.44-414.19,377.85-842.8,739.89-214.68,180.6-434.19,355.9-109.92,87.48-221.43,173.21-55.84,42.76-112.2,85-28.22,21-56.61,41.92t-57.16,41.33q23-26.78,46.41-53.12t47-52.52q47.14-52.31,94.93-103.91,95.54-103.24,192.83-204.57,194.49-202.72,394.3-399.65Q10895,7290.47,11310,6913.49q414.38-377.64,843-739.67,214.7-180.6,434.16-355.94,109.91-87.51,221.37-173.28,55.83-42.78,112.15-85,28.21-21.08,56.59-41.95T13034.36,5476.26Z"/><path class="cls-3" d="M9053.37,7696q2.88-8.52,6.15-16.61c2.14-5.43,4.4-10.75,6.68-16,4.6-10.55,9.44-20.82,14.41-31,10-20.2,20.67-39.72,31.8-58.72a1165.77,1165.77,0,0,1,72.3-108.17c51.47-68.62,108.71-131.07,170.28-188.89s127.66-110.83,199.48-157.72a1158.36,1158.36,0,0,1,112.72-65c19.71-9.85,39.91-19.17,60.75-27.8,10.45-4.29,21-8.43,31.88-12.3,5.43-1.92,10.89-3.82,16.46-5.59s11.21-3.47,17-5q-2.85,8.52-6.11,16.64c-2.13,5.44-4.38,10.77-6.65,16.06-4.58,10.57-9.41,20.86-14.37,31-10,20.24-20.62,39.78-31.74,58.8a1156,1156,0,0,1-72.26,108.2c-51.51,68.58-108.79,131-170.48,188.68s-127.83,110.65-199.68,157.5a1169.16,1169.16,0,0,1-112.69,65c-19.69,9.86-39.87,19.21-60.69,27.87-10.44,4.29-21,8.45-31.83,12.34-5.42,1.94-10.88,3.83-16.44,5.62S9059.16,7694.49,9053.37,7696Z"/><path class="cls-3" d="M10658.27,9238.47q2.8-8.17,6-15.93c2.08-5.2,4.27-10.28,6.49-15.33,4.46-10.07,9.16-19.88,14-29.53,9.72-19.25,20.07-37.79,30.89-55.82a1061,1061,0,0,1,70.23-102.12c50-64.51,105.63-122.71,165.47-176.18s124.07-102,193.87-144.28a1054.2,1054.2,0,0,1,109.58-58c19.15-8.65,38.79-16.77,59.06-24.18,10.16-3.67,20.45-7.2,31-10.45,5.28-1.61,10.59-3.19,16-4.65s10.9-2.84,16.54-4.05q-2.77,8.19-5.93,16c-2.07,5.21-4.25,10.31-6.46,15.37-4.45,10.09-9.14,19.91-14,29.58-9.69,19.27-20,37.84-30.82,55.88a1052.33,1052.33,0,0,1-70.2,102.16c-50,64.47-105.7,122.63-165.66,176s-124.23,101.82-194.07,144.06a1062.65,1062.65,0,0,1-109.54,58c-19.15,8.66-38.76,16.81-59,24.24-10.15,3.69-20.43,7.23-30.95,10.5-5.27,1.62-10.57,3.21-16,4.68S10663.9,9237.25,10658.27,9238.47Z"/><path class="cls-3" d="M13728.14,6368.63q-2.24,8.16-4.86,15.91c-1.73,5.2-3.56,10.29-5.42,15.34-3.75,10.09-7.76,19.91-11.9,29.6-8.35,19.32-17.36,38-26.86,56.1a1007.67,1007.67,0,0,1-62.65,103.13c-45.12,65.33-96.17,124.65-151.65,179.46s-115.62,104.9-181.63,149a997.88,997.88,0,0,1-104.13,61c-18.3,9.21-37.11,17.9-56.58,25.91-9.76,4-19.66,7.82-29.83,11.39-5.09,1.78-10.21,3.52-15.45,5.15s-10.54,3.18-16,4.57q2.22-8.18,4.83-15.94c1.71-5.21,3.54-10.3,5.39-15.37,3.73-10.1,7.73-19.94,11.86-29.64,8.32-19.34,17.3-38,26.79-56.16a1001.24,1001.24,0,0,1,62.61-103.17c45.16-65.3,96.24-124.58,151.86-179.25s115.79-104.73,181.83-148.81a1009.07,1009.07,0,0,1,104.1-61c18.29-9.21,37.07-17.92,56.51-26,9.76-4,19.64-7.84,29.79-11.43,5.08-1.79,10.2-3.54,15.42-5.18S13722.68,6370,13728.14,6368.63Z"/><path class="cls-3" d="M13738.56,7717.42c-5.56-1.44-11-3-16.27-4.73s-10.53-3.47-15.71-5.3c-10.34-3.67-20.42-7.61-30.37-11.69-19.83-8.22-39-17.12-57.7-26.51A1053.51,1053.51,0,0,1,13512,7607c-67.69-44.88-129.51-95.82-186.92-151.31s-110.21-115.72-157.19-182a1044.89,1044.89,0,0,1-65.37-104.62c-10-18.4-19.41-37.32-28.21-56.92-4.37-9.83-8.6-19.8-12.58-30-2-5.13-3.92-10.29-5.75-15.57s-3.6-10.63-5.2-16.15q8.35,2.15,16.3,4.7c5.33,1.67,10.55,3.45,15.74,5.27,10.36,3.66,20.45,7.58,30.41,11.65,19.86,8.19,39.07,17.06,57.77,26.45a1042.21,1042.21,0,0,1,106.58,62.12c67.66,44.91,129.44,95.89,186.72,151.51s110,115.9,157,182.18a1053,1053,0,0,1,65.41,104.59c10,18.39,19.45,37.28,28.28,56.86,4.38,9.81,8.62,19.77,12.62,30,2,5.12,3.93,10.27,5.78,15.54S13737,7711.92,13738.56,7717.42Z"/><path class="cls-3" d="M12483.13,8858.26q-4.25-6.58-7.93-13.18c-2.5-4.4-4.84-8.8-7.13-13.19-4.56-8.79-8.75-17.58-12.75-26.37-7.91-17.59-14.87-35.17-21.13-52.75a835.05,835.05,0,0,1-29.55-105.49c-14.91-70.33-21.37-140.66-21.51-211s6.36-140.66,21.21-211a828.92,828.92,0,0,1,29.61-105.5c6.27-17.58,13.27-35.16,21.22-52.74,4-8.8,8.23-17.59,12.81-26.38,2.31-4.39,4.66-8.79,7.17-13.18s5.13-8.79,8-13.19q4.26,6.6,8,13.19c2.51,4.39,4.87,8.79,7.17,13.18,4.59,8.79,8.8,17.58,12.81,26.38,8,17.58,15,35.16,21.23,52.74a830.51,830.51,0,0,1,29.6,105.5c14.86,70.32,21.26,140.65,21.21,211s-6.6,140.66-21.51,211a836.67,836.67,0,0,1-29.54,105.49c-6.27,17.58-13.23,35.16-21.14,52.75-4,8.79-8.19,17.58-12.74,26.37-2.3,4.39-4.64,8.79-7.14,13.19S12486,8853.87,12483.13,8858.26Z"/><path class="cls-3" d="M12487.79,5069.83q4.24,7.07,7.92,14.13c2.5,4.72,4.84,9.43,7.14,14.14,4.55,9.43,8.74,18.85,12.74,28.28,7.91,18.85,14.87,37.7,21.14,56.56a949.65,949.65,0,0,1,29.55,113.11c14.9,75.4,21.37,150.81,21.5,226.22s-6.35,150.81-21.21,226.22a941,941,0,0,1-29.6,113.11c-6.28,18.85-13.28,37.7-21.23,56.56-4,9.42-8.22,18.85-12.8,28.27-2.31,4.72-4.67,9.43-7.18,14.14s-5.12,9.43-8,14.14q-4.28-7.06-8-14.14c-2.51-4.71-4.86-9.42-7.17-14.14-4.58-9.42-8.79-18.85-12.81-28.27-8-18.86-15-37.71-21.22-56.56a939.18,939.18,0,0,1-29.61-113.11c-14.85-75.41-21.26-150.81-21.21-226.22s6.6-150.82,21.51-226.22a947.75,947.75,0,0,1,29.55-113.11c6.26-18.86,13.22-37.71,21.13-56.56,4-9.43,8.19-18.85,12.75-28.28,2.29-4.71,4.63-9.42,7.13-14.14S12485,5074.54,12487.79,5069.83Z"/><path class="cls-3" d="M13534.59,5974.71q-8.18,4.24-16.36,7.93c-5.45,2.5-10.9,4.84-16.35,7.13-10.91,4.56-21.81,8.75-32.71,12.75-21.81,7.9-43.62,14.87-65.43,21.13a1238.16,1238.16,0,0,1-130.85,29.55c-87.23,14.91-174.47,21.37-261.7,21.5s-174.47-6.35-261.7-21.21a1228,1228,0,0,1-130.85-29.6c-21.81-6.28-43.62-13.28-65.43-21.22-10.9-4-21.81-8.23-32.71-12.81-5.45-2.31-10.9-4.66-16.36-7.17s-10.9-5.13-16.35-8q8.17-4.28,16.35-8c5.46-2.52,10.91-4.87,16.36-7.18,10.9-4.58,21.81-8.79,32.71-12.81,21.81-7.94,43.62-14.94,65.43-21.22a1228,1228,0,0,1,130.85-29.6c87.23-14.86,174.47-21.27,261.7-21.21s174.47,6.59,261.7,21.5a1238.16,1238.16,0,0,1,130.85,29.55c21.81,6.27,43.62,13.23,65.43,21.13,10.9,4,21.8,8.19,32.71,12.75,5.45,2.3,10.9,4.64,16.35,7.13S13529.14,5971.88,13534.59,5974.71Z"/><path class="cls-3" d="M12075.59,4923.93q-2.7,7.89-5.75,15.36c-2,5-4.13,9.91-6.27,14.77-4.31,9.69-8.86,19.11-13.53,28.38-9.4,18.47-19.41,36.22-29.88,53.44a976.22,976.22,0,0,1-68.06,97.23c-48.48,61.18-102.46,116-160.56,165.91s-120.51,94.9-188.36,133.48a967,967,0,0,1-106.55,52.32c-18.63,7.7-37.73,14.85-57.45,21.28-9.88,3.18-19.89,6.22-30.15,9-5.14,1.37-10.31,2.7-15.58,3.9s-10.61,2.34-16.1,3.3q2.68-7.92,5.72-15.41c2-5,4.11-9.92,6.25-14.79,4.29-9.71,8.82-19.14,13.48-28.43,9.38-18.5,19.37-36.28,29.83-53.51a968.11,968.11,0,0,1,68-97.27c48.52-61.14,102.53-115.87,160.76-165.69s120.66-94.72,188.55-133.26a975.32,975.32,0,0,1,106.5-52.35c18.63-7.71,37.7-14.89,57.4-21.35,9.87-3.2,19.87-6.25,30.11-9,5.13-1.38,10.29-2.71,15.55-3.94S12070.11,4924.89,12075.59,4923.93Z"/><path class="cls-3" d="M10616.59,4871.82q8.7,1.85,17,4.14c5.58,1.49,11.07,3.09,16.52,4.74,10.88,3.31,21.53,6.9,32.06,10.64,21,7.54,41.36,15.8,61.28,24.59a1142.42,1142.42,0,0,1,114.3,58.84c73.08,42.88,140.68,92.17,204.16,146.27s122.67,113.24,176.41,178.74a1129.88,1129.88,0,0,1,75.86,103.8q17.66,27.48,33.75,56.79c5.32,9.82,10.51,19.8,15.45,30.06,2.47,5.14,4.9,10.32,7.23,15.61s4.59,10.68,6.7,16.23c-5.81-1.22-11.5-2.6-17.07-4.1s-11.08-3.08-16.55-4.71c-10.9-3.3-21.56-6.87-32.09-10.6-21-7.51-41.41-15.74-61.34-24.52a1129.08,1129.08,0,0,1-114.33-58.81c-73.06-42.91-140.62-92.24-204-146.49s-122.51-113.42-176.22-178.95a1141.36,1141.36,0,0,1-75.89-103.77c-11.78-18.31-23.1-37.15-33.81-56.71-5.33-9.82-10.53-19.78-15.49-30-2.48-5.13-4.92-10.3-7.26-15.58S10618.71,4877.36,10616.59,4871.82Z"/><path class="cls-3" d="M9272.22,5974.71q7.53-4.24,15.06-7.93c5-2.49,10-4.83,15.06-7.13,10-4.56,20.08-8.75,30.12-12.75,20.09-7.9,40.17-14.86,60.25-21.13a1063.54,1063.54,0,0,1,120.48-29.55c80.32-14.91,160.65-21.37,241-21.5s160.65,6.35,241,21.21a1055.37,1055.37,0,0,1,120.48,29.6c20.09,6.28,40.17,13.28,60.25,21.22,10,4,20.08,8.23,30.12,12.81,5,2.31,10,4.66,15.06,7.18s10,5.12,15.06,8q-7.53,4.28-15.06,8c-5,2.51-10,4.86-15.06,7.17-10,4.58-20.08,8.79-30.12,12.81-20.08,7.94-40.16,14.94-60.25,21.22a1055.37,1055.37,0,0,1-120.48,29.6c-80.32,14.86-160.65,21.27-241,21.21s-160.65-6.59-241-21.5a1063.54,1063.54,0,0,1-120.48-29.55c-20.08-6.26-40.16-13.23-60.25-21.13-10-4-20.08-8.19-30.12-12.75-5-2.29-10-4.63-15.06-7.13S9277.24,5977.54,9272.22,5974.71Z"/><path class="cls-3" d="M9678.66,5557.07q29.31,20.88,58.25,42.17t57.71,42.75q57.52,43,114.41,86.64,113.82,87.28,225.89,176.49,224.23,178.32,443.23,362.42,438.41,367.72,861.2,752.65,423.42,384.24,832.48,784.29,204.15,200.44,403.48,406.21,99.51,103,197.42,207.86,48.87,52.5,97.23,105.56,24.14,26.58,48.1,53.34t47.57,53.95q-29.34-20.86-58.29-42.13t-57.74-42.73q-57.54-42.95-114.45-86.59-113.85-87.24-225.95-176.43-224.28-178.28-443.27-362.37-438.34-367.78-861-752.88-423.24-384.44-832.29-784.5-204.15-200.46-403.51-406.17-99.52-103-197.48-207.79-48.9-52.49-97.28-105.51-24.15-26.58-48.13-53.32T9678.66,5557.07Z"/><path class="cls-3" d="M9022.11,7063.21q36.79-4.24,73.6-7.92t73.6-7.14q73.6-6.82,147.2-12.74,147.21-11.86,294.41-21.14,294.41-18.68,588.81-29.54c392.54-14.91,785.08-21.38,1177.62-21.51s785.09,6.35,1177.63,21.21q294.41,11.22,588.81,29.6,147.19,9.42,294.4,21.23,73.6,6,147.21,12.81,36.8,3.45,73.6,7.17t73.6,8q-36.81,4.28-73.6,8t-73.6,7.17q-73.6,6.87-147.21,12.81-147.2,11.92-294.4,21.23-294.41,18.74-588.81,29.6-588.81,22.28-1177.63,21.21c-392.54-.14-785.08-6.6-1177.62-21.51q-294.41-11.22-588.81-29.55-147.21-9.39-294.41-21.13-73.59-6-147.2-12.75-36.79-3.44-73.6-7.13T9022.11,7063.21Z"/><path class="cls-3" d="M9022.11,6380.37q8.65,2.21,16.94,4.84c5.54,1.72,11,3.56,16.39,5.43,10.8,3.76,21.35,7.8,31.77,12,20.78,8.41,40.92,17.52,60.58,27.15a1151.93,1151.93,0,0,1,112.53,63.64c71.77,46,137.81,98.1,199.56,154.91s119,118.47,170.6,186.3a1138.63,1138.63,0,0,1,72.41,107.11c11.16,18.84,21.83,38.21,31.85,58.27,5,10.07,9.84,20.27,14.44,30.75,2.29,5.26,4.55,10.54,6.7,15.94s4.23,10.88,6.15,16.53q-8.69-2.19-17-4.8c-5.56-1.72-11-3.54-16.43-5.4-10.81-3.75-21.37-7.77-31.8-11.93-20.81-8.39-41-17.47-60.64-27.08a1142.41,1142.41,0,0,1-112.57-63.6c-71.74-46-137.74-98.18-199.37-155.13s-118.84-118.65-170.39-186.51a1150.73,1150.73,0,0,1-72.45-107.07c-11.17-18.83-21.86-38.18-31.91-58.21-5-10-9.87-20.25-14.48-30.71-2.3-5.24-4.57-10.52-6.73-15.91S9024,6386,9022.11,6380.37Z"/><path class="cls-3" d="M9022.11,7756q2.88-8.52,6.14-16.62c2.15-5.43,4.4-10.74,6.69-16,4.59-10.54,9.43-20.82,14.41-31,10-20.21,20.67-39.72,31.8-58.73a1167.52,1167.52,0,0,1,72.29-108.16c51.48-68.62,108.72-131.07,170.29-188.9s127.66-110.82,199.47-157.71a1157.66,1157.66,0,0,1,112.73-65c19.7-9.85,39.9-19.17,60.75-27.8,10.45-4.29,21-8.43,31.87-12.3,5.44-1.93,10.9-3.82,16.47-5.59s11.21-3.48,17-5q-2.86,8.53-6.11,16.65c-2.14,5.44-4.38,10.77-6.66,16.06-4.57,10.56-9.4,20.85-14.37,31q-15,30.34-31.74,58.79a1156.16,1156.16,0,0,1-72.26,108.21c-51.5,68.58-108.78,131-170.48,188.68s-127.83,110.65-199.68,157.49a1163.63,1163.63,0,0,1-112.68,65c-19.7,9.86-39.87,19.21-60.69,27.87-10.44,4.3-21,8.46-31.84,12.35-5.42,1.93-10.87,3.83-16.43,5.62S9027.9,7754.45,9022.11,7756Z"/><path class="cls-3" d="M9209.69,8058.22q7.9-4,15.77-7.42c5.25-2.33,10.5-4.5,15.74-6.63,10.49-4.22,21-8.07,31.44-11.74,20.93-7.23,41.84-13.52,62.72-19.11a1123.51,1123.51,0,0,1,125-25.52c83.21-12.22,166.14-16,248.86-13.45s165.24,11.7,247.49,29.23a1113.85,1113.85,0,0,1,123.12,33.6c20.48,6.95,40.93,14.61,61.36,23.23,10.21,4.34,20.41,8.89,30.6,13.8,5.1,2.48,10.19,5,15.28,7.67s10.18,5.46,15.25,8.48q-7.89,4-15.76,7.47c-5.26,2.34-10.5,4.52-15.75,6.66-10.49,4.25-21,8.12-31.43,11.8-20.94,7.27-41.85,13.6-62.73,19.2a1112.54,1112.54,0,0,1-125,25.57c-83.21,12.17-166.14,15.9-248.86,13.17s-165.23-11.95-247.47-29.53a1125.4,1125.4,0,0,1-123.13-33.55c-20.47-6.93-40.93-14.56-61.35-23.13-10.21-4.33-20.42-8.86-30.61-13.75-5.1-2.46-10.19-5-15.28-7.63S9214.77,8061.21,9209.69,8058.22Z"/><path class="cls-3" d="M10178.89,9017q-4.06-7.35-7.56-14.68c-2.37-4.89-4.59-9.77-6.76-14.66-4.31-9.77-8.26-19.53-12-29.28-7.42-19.5-13.89-39-19.66-58.45a990,990,0,0,1-26.61-116.58c-12.94-77.59-17.45-155-15.62-232.2s10.26-154.28,27.07-231.12a982.41,982.41,0,0,1,32.52-115.08c6.77-19.15,14.26-38.27,22.69-57.38,4.26-9.55,8.71-19.09,13.54-28.63,2.43-4.77,4.9-9.53,7.53-14.3s5.37-9.52,8.34-14.27q4.09,7.35,7.61,14.68c2.39,4.89,4.62,9.77,6.8,14.66,4.34,9.77,8.3,19.53,12.07,29.28,7.46,19.51,14,39,19.75,58.45a982.78,982.78,0,0,1,26.66,116.58c12.9,77.6,17.35,155,15.34,232.2s-10.51,154.27-27.37,231.11a991.9,991.9,0,0,1-32.47,115.08c-6.75,19.15-14.2,38.27-22.6,57.38-4.24,9.55-8.67,19.1-13.47,28.63-2.42,4.77-4.88,9.54-7.5,14.3S10181.84,9012.23,10178.89,9017Z"/><path class="cls-3" d="M12106.85,9194.15q-8.67-1.75-17-3.94c-5.57-1.42-11-3-16.48-4.55-10.86-3.19-21.48-6.65-32-10.26-20.94-7.3-41.28-15.32-61.16-23.87a1126.87,1126.87,0,0,1-114.13-57.45c-73-42-140.56-90.4-204-143.67s-122.7-111.61-176.53-176.35a1117.32,1117.32,0,0,1-76-102.7c-11.81-18.15-23.15-36.85-33.88-56.27-5.34-9.74-10.55-19.64-15.52-29.81-2.48-5.11-4.93-10.24-7.27-15.5s-4.62-10.59-6.75-16.11q8.7,1.74,17,3.91c5.58,1.41,11.06,3,16.51,4.52,10.87,3.17,21.51,6.62,32,10.22,21,7.26,41.33,15.25,61.22,23.79a1116.87,1116.87,0,0,1,114.16,57.42c73,42,140.49,90.47,203.85,143.89s122.55,111.79,176.34,176.57a1126.74,1126.74,0,0,1,76.07,102.66c11.81,18.14,23.18,36.81,33.93,56.2,5.35,9.73,10.58,19.61,15.57,29.77,2.48,5.09,4.94,10.22,7.29,15.46S12104.71,9188.65,12106.85,9194.15Z"/><path class="cls-3" d="M12451.86,8918.23c-2.83-4.4-5.46-8.79-7.93-13.19s-4.83-8.79-7.13-13.18c-4.55-8.79-8.74-17.59-12.74-26.38-7.91-17.58-14.87-35.16-21.14-52.74a838.56,838.56,0,0,1-29.55-105.5c-14.9-70.32-21.37-140.65-21.5-211s6.35-140.66,21.21-211a830.37,830.37,0,0,1,29.6-105.49c6.28-17.58,13.28-35.16,21.23-52.75,4-8.79,8.22-17.58,12.8-26.37,2.31-4.4,4.67-8.79,7.18-13.19s5.12-8.79,8-13.18q4.27,6.59,8,13.18c2.51,4.4,4.86,8.79,7.17,13.19,4.58,8.79,8.79,17.58,12.81,26.37,7.94,17.59,14.94,35.17,21.22,52.75a828.72,828.72,0,0,1,29.6,105.49c14.86,70.33,21.27,140.66,21.21,211s-6.59,140.66-21.5,211a836.87,836.87,0,0,1-29.55,105.5c-6.26,17.58-13.23,35.16-21.13,52.74-4,8.79-8.19,17.59-12.75,26.38-2.29,4.39-4.63,8.79-7.13,13.18S12454.69,8913.83,12451.86,8918.23Z"/><path class="cls-3" d="M13180.51,8074.29q-5.7,4.24-11.39,7.92c-3.79,2.5-7.59,4.84-11.38,7.14-7.59,4.55-15.18,8.74-22.77,12.74-15.18,7.9-30.36,14.89-45.54,21.12a644.83,644.83,0,0,1-91.08,29.57c-60.72,14.9-121.45,21.37-182.17,21.5s-121.44-6.35-182.16-21.21a640,640,0,0,1-91.08-29.61c-15.18-6.26-30.36-13.28-45.54-21.22-7.59-4-15.18-8.22-22.77-12.8-3.79-2.31-7.59-4.67-11.38-7.18s-7.59-5.12-11.39-8q5.7-4.28,11.39-8c3.79-2.51,7.59-4.86,11.38-7.17,7.59-4.58,15.18-8.79,22.77-12.81,15.18-7.94,30.36-15,45.54-21.21a638.69,638.69,0,0,1,91.08-29.61c60.72-14.86,121.44-21.27,182.16-21.22s121.45,6.6,182.17,21.51a644.76,644.76,0,0,1,91.08,29.56c15.18,6.24,30.36,13.22,45.54,21.12,7.59,4,15.18,8.19,22.77,12.75,3.79,2.29,7.59,4.63,11.38,7.13S13176.71,8071.46,13180.51,8074.29Z"/><path class="cls-3" d="M10105.81,5104q4.35,7,8.15,14c2.57,4.67,5,9.35,7.35,14,4.7,9.36,9,18.72,13.19,28.08,8.2,18.73,15.46,37.47,22,56.23a948.13,948.13,0,0,1,31.32,112.64c16.09,75.18,23.74,150.48,25,225.89s-4,150.91-17.65,226.55a943.11,943.11,0,0,1-27.82,113.58c-6,18.95-12.69,37.91-20.34,56.88-3.86,9.49-7.93,19-12.36,28.48-2.23,4.75-4.51,9.5-6.95,14.25s-5,9.51-7.75,14.27q-4.38-7-8.2-14c-2.58-4.67-5-9.34-7.39-14-4.73-9.36-9.09-18.72-13.25-28.08-8.24-18.72-15.54-37.47-22.11-56.22a939.27,939.27,0,0,1-31.38-112.65c-16-75.17-23.63-150.48-24.76-225.88s4.23-150.92,17.95-226.56a948.52,948.52,0,0,1,27.77-113.58c6-18.95,12.63-37.91,20.24-56.88,3.86-9.49,7.9-19,12.3-28.48,2.23-4.75,4.49-9.5,6.91-14.25S10103.05,5108.74,10105.81,5104Z"/></g></g></svg>