<svg xmlns="http://www.w3.org/2000/svg" xmlns:xlink="http://www.w3.org/1999/xlink" viewBox="0 0 15819.98 12488.86"><defs><style>.cls-1{fill:#f5f5f5;}.cls-2,.cls-3,.cls-4{stroke:#fff;stroke-miterlimit:10;stroke-width:5px;}.cls-2{fill:url(#Dégradé_sans_nom);}.cls-3{fill:url(#Dégradé_sans_nom_4);}.cls-4{fill:url(#Dégradé_sans_nom-2);}.cls-5{fill:#505050;}</style><linearGradient id="Dégradé_sans_nom" x1="10089.54" y1="2792.5" x2="7582.87" y2="4808.5" gradientUnits="userSpaceOnUse"><stop offset="0" stop-color="#fff"/><stop offset="1"/></linearGradient><linearGradient id="Dégradé_sans_nom_4" x1="10392.14" y1="8065.13" x2="17626.23" y2="-6053.82" gradientUnits="userSpaceOnUse"><stop offset="0" stop-color="#fff"/><stop offset="0.83"/></linearGradient><linearGradient id="Dégradé_sans_nom-2" x1="13190.33" y1="7146.64" x2="11937" y2="8154.64" xlink:href="#Dégradé_sans_nom"/></defs><g id="Calque_2" data-name="Calque 2"><g id="NuageMoon"><g id="Calque_10" data-name="Calque 10"><path class="cls-1" d="M10736.13,0C10634.5,43.77,8531.48,994,8233,3299,7951.25,5475,9532.52,6890.74,9655.24,6996.78c220.11,171.11,1763.68,1330.35,3754.66,881.78,1342.68-302.51,2141.49-1167.85,2410.08-1488-420.92,114.45-1080.84,233-1869.63,122.67C12466.89,6305.66,11519.57,5427.08,11191.24,5091c-272.09-339-799.52-1091.72-967.11-2190.22C10005.7,1469.13,10538.3,366.85,10736.13,0Z"/><circle class="cls-2" cx="9718.12" cy="3091.22" r="490.67"/><circle class="cls-3" cx="11226.85" cy="6436" r="490.67"/><circle class="cls-4" cx="13004.63" cy="7296" r="245.33"/></g><path class="cls-5" d="M13341.75,10304.74c-28.08,129.74-237.91,1026.58-1027.76,1625.21-461.42,349.71-1040.8,547.19-1693.18,553.22-1196.6,11.06-2393.37,2.58-3590.07,2.62-1209.43,0-2418.87,4.08-3628.27-1.05C1589.73,12477,227.56,11286.5,19.9,9464.27-155.53,7924.88,840.34,6340,2562.13,5903.79c141.5-35.85,294.54-149.21,378.45-270.62,1079.7-1562.22,2573-2269.85,4438.15-1992.84,1804.46,268,2991.07,1356.41,3594.57,3082.63,40.84,116.83,176.14,248.85,293.9,283.1,594.27,172.87,1071.19,453.52,1426.59,848.93,435,484,605.61,1054,661.17,1351.1C13450.63,9717.7,13379.73,10129.3,13341.75,10304.74Z"/></g></g></svg>