<svg xmlns="http://www.w3.org/2000/svg" xmlns:xlink="http://www.w3.org/1999/xlink" viewBox="0 0 14914.66 9748.78"><defs><style>.cls-1{fill:#828282;}.cls-2{fill:#4f4f4f;}.cls-3{fill:#fff;}.cls-4{fill:url(#Dégradé_sans_nom_18);}.cls-5{fill:url(#Dégradé_sans_nom_18-2);}.cls-6{fill:url(#Dégradé_sans_nom_18-3);}.cls-7{fill:url(#Dégradé_sans_nom_18-4);}.cls-8{fill:url(#Dégradé_sans_nom_18-5);}.cls-9{fill:url(#Dégradé_sans_nom_18-6);}.cls-10{fill:url(#Dégradé_sans_nom_18-7);}.cls-11{fill:url(#Dégradé_sans_nom_18-8);}.cls-12{fill:url(#Dégradé_sans_nom_18-9);}.cls-13{fill:url(#Dégradé_sans_nom_18-10);}.cls-14{fill:url(#Dégradé_sans_nom_18-11);}</style><linearGradient id="Dégradé_sans_nom_18" x1="4883.62" y1="7508.47" x2="5242.11" y2="6474.86" gradientTransform="translate(4170.54 -471.21) rotate(24)" gradientUnits="userSpaceOnUse"><stop offset="0" stop-color="#00d1ff"/><stop offset="0.19" stop-color="#00c1ff"/><stop offset="0.57" stop-color="#0096ff"/><stop offset="0.9" stop-color="#006dff"/></linearGradient><linearGradient id="Dégradé_sans_nom_18-2" x1="4128.56" y1="8540.01" x2="4487.04" y2="7506.4" xlink:href="#Dégradé_sans_nom_18"/><linearGradient id="Dégradé_sans_nom_18-3" x1="3287.4" y1="9692.89" x2="3645.88" y2="8659.28" xlink:href="#Dégradé_sans_nom_18"/><linearGradient id="Dégradé_sans_nom_18-4" x1="1854.81" y1="9552.27" x2="2213.3" y2="8518.66" xlink:href="#Dégradé_sans_nom_18"/><linearGradient id="Dégradé_sans_nom_18-5" x1="466.06" y1="9475.13" x2="824.55" y2="8441.52" xlink:href="#Dégradé_sans_nom_18"/><linearGradient id="Dégradé_sans_nom_18-6" x1="1013.65" y1="10705.14" x2="1372.14" y2="9671.53" xlink:href="#Dégradé_sans_nom_18"/><linearGradient id="Dégradé_sans_nom_18-7" x1="7501.19" y1="5170.39" x2="7859.68" y2="4136.78" xlink:href="#Dégradé_sans_nom_18"/><linearGradient id="Dégradé_sans_nom_18-8" x1="6986.3" y1="3873.95" x2="7344.79" y2="2840.34" xlink:href="#Dégradé_sans_nom_18"/><linearGradient id="Dégradé_sans_nom_18-9" x1="8397.25" y1="4000.96" x2="8755.74" y2="2967.35" xlink:href="#Dégradé_sans_nom_18"/><linearGradient id="Dégradé_sans_nom_18-10" x1="10619.03" y1="3011.84" x2="10977.51" y2="1978.23" xlink:href="#Dégradé_sans_nom_18"/><linearGradient id="Dégradé_sans_nom_18-11" x1="11364.88" y1="1924.64" x2="11723.37" y2="891.03" xlink:href="#Dégradé_sans_nom_18"/></defs><g id="Calque_2" data-name="Calque 2"><g id="Orage"><path class="cls-1" d="M13102.61,5933.78c-24.8,114.5-210,906-907.28,1434.37-407.32,308.65-918.78,482.94-1494.69,488.26-1056.31,9.76-2112.78,2.28-3169.19,2.31-1067.64,0-2135.3,3.61-3202.92-.93C2728.31,7851,1525.82,6800.26,1342.51,5192c-154.87-1358.64,724.25-2757.41,2244.2-3142.41,124.91-31.64,260-131.69,334.08-238.85C4873.91,432,6192.15-192.57,7838.65,51.91c1592.91,236.53,2640.41,1197.14,3173.16,2720.66,36.06,103.12,155.5,219.63,259.45,249.87,524.6,152.57,945.61,400.26,1259.35,749.24,384,427.13,534.61,930.2,583.66,1192.45C13198.72,5415.67,13136.13,5778.94,13102.61,5933.78Z"/><path class="cls-2" d="M6833.59,7564.36c-14.38,66.44-121.85,525.7-526.41,832.25-236.34,179.08-533.1,280.21-867.25,283.29-612.89,5.67-1225.87,1.32-1838.81,1.34-619.47,0-1238.94,2.1-1858.39-.53C814.26,8676.76,116.55,8067.11,10.19,7134c-89.85-788.31,420.23-1599.9,1302.12-1823.28,72.48-18.35,150.87-76.4,193.85-138.58,553-800,1317.87-1162.36,2273.2-1020.5,924.23,137.23,1532,694.59,1841.12,1578.57,20.92,59.83,90.22,127.43,150.53,145,304.39,88.53,548.66,232.24,730.7,434.73,222.8,247.82,310.19,539.72,338.65,691.88C6889.36,7263.75,6853,7474.52,6833.59,7564.36Z"/><path class="cls-2" d="M14883.37,4885.92c-14.39,66.44-121.86,525.69-526.41,832.25-236.34,179.08-533.1,280.21-867.25,283.29-612.89,5.66-1225.87,1.32-1838.82,1.34-619.46,0-1238.93,2.09-1858.38-.54C8864,5998.32,8166.33,5388.66,8060,4455.52c-89.85-788.3,420.22-1599.89,1302.12-1823.27,72.48-18.36,150.86-76.41,193.84-138.58,553-800,1317.88-1162.36,2273.21-1020.51,924.23,137.24,1532,694.6,1841.11,1578.58,20.93,59.82,90.23,127.43,150.54,145,304.38,88.52,548.66,232.24,730.7,434.72,222.8,247.83,310.19,539.72,338.65,691.88C14939.13,4585.3,14902.82,4796.08,14883.37,4885.92Z"/><path class="cls-3" d="M12752.88,4036.15l-1571,1728,347.94,21.34q-348.44,561.78-696.89,1123.55h384L10520,8331.26l1692.45-1621.33h-440.89L12482.66,5629h-512Z"/><path class="cls-3" d="M4262.22,6525.63,3161.48,7736.33l243.78,14.95L2917,8538.48H3186L2697.77,9535,3883.56,8399h-308.9l498.23-757.31H3714.16Z"/><path class="cls-4" d="M6355.16,7515.61q-158.77,9.29-307.27,53.24-187.53,55.5-358.7,166.29c-20.35,16-148.76,120.77-157.59,300.09-1.57,31.92-5.88,198.94,115.89,299,152.51,125.26,401.62,62.29,520.66-62.61,67-70.26,91.29-158.55,105.28-209.32,27.87-101.17,12.25-150.11,25.31-279.63C6305.14,7719.11,6319.38,7626.86,6355.16,7515.61Z"/><path class="cls-5" d="M5245.83,8150.9q-158.78,9.29-307.27,53.23-187.53,55.52-358.7,166.3c-20.35,16-148.76,120.77-157.59,300.08-1.57,31.93-5.88,198.95,115.88,299,152.52,125.27,401.63,62.3,520.67-62.6,67-70.26,91.28-158.55,105.27-209.33,27.87-101.16,12.26-150.1,25.31-279.62C5195.81,8354.4,5210.05,8262.15,5245.83,8150.9Z"/><path class="cls-6" d="M4008.49,8862q-158.76,9.29-307.27,53.24-187.51,55.5-358.69,166.29c-20.36,16-148.77,120.77-157.59,300.09-1.57,31.92-5.89,198.94,115.88,299,152.51,125.27,401.62,62.3,520.67-62.6,67-70.26,91.28-158.55,105.27-209.32,27.87-101.17,12.25-150.11,25.31-279.63C3958.47,9065.51,3972.71,8973.26,4008.49,8862Z"/><path class="cls-7" d="M2756.94,8150.9q-158.78,9.29-307.27,53.23-187.53,55.52-358.7,166.3c-20.35,16-148.76,120.77-157.59,300.08-1.57,31.93-5.88,198.95,115.88,299,152.52,125.27,401.63,62.3,520.67-62.6,67-70.26,91.29-158.55,105.27-209.33,27.87-101.16,12.26-150.1,25.31-279.62C2706.92,8354.4,2721.16,8262.15,2756.94,8150.9Z"/><path class="cls-8" d="M1519.6,7515.61q-158.76,9.29-307.27,53.24-187.51,55.5-358.69,166.29c-20.36,16-148.77,120.77-157.59,300.09-1.57,31.92-5.89,198.94,115.88,299,152.52,125.26,401.62,62.29,520.67-62.61,67-70.26,91.28-158.55,105.27-209.32,27.87-101.17,12.25-150.11,25.31-279.63C1469.58,7719.11,1483.82,7626.86,1519.6,7515.61Z"/><path class="cls-9" d="M1519.6,8862q-158.76,9.29-307.27,53.24-187.51,55.5-358.69,166.29c-20.36,16-148.77,120.77-157.59,300.09-1.57,31.92-5.89,198.94,115.88,299,152.52,125.27,401.62,62.3,520.67-62.6,67-70.26,91.28-158.55,105.27-209.32,27.87-101.17,12.25-150.11,25.31-279.63C1469.58,9065.51,1483.82,8973.26,1519.6,8862Z"/><path class="cls-10" d="M9697.38,6444.23q-158.76,9.29-307.27,53.24-187.53,55.5-358.69,166.29c-20.36,16-148.77,120.78-157.59,300.09-1.57,31.92-5.89,198.94,115.88,299,152.51,125.26,401.62,62.29,520.66-62.61,67-70.25,91.29-158.55,105.28-209.32,27.87-101.17,12.25-150.11,25.31-279.63C9647.36,6647.73,9661.6,6555.48,9697.38,6444.23Z"/><path class="cls-11" d="M9754.27,5050.46q-158.76,9.27-307.27,53.23-187.53,55.5-358.7,166.29c-20.35,16.05-148.76,120.78-157.58,300.09-1.58,31.93-5.89,199,115.88,299,152.51,125.27,401.62,62.29,520.66-62.61,67-70.25,91.29-158.55,105.28-209.32,27.87-101.17,12.25-150.11,25.31-279.63C9704.25,5254,9718.49,5161.71,9754.27,5050.46Z"/><path class="cls-12" d="M10991.6,5740.33q-158.76,9.29-307.27,53.23-187.52,55.5-358.69,166.29c-20.36,16-148.77,120.78-157.59,300.09-1.57,31.93-5.89,199,115.88,299,152.52,125.27,401.62,62.29,520.67-62.6,67-70.26,91.28-158.55,105.27-209.33,27.87-101.17,12.25-150.1,25.31-279.62C10941.58,5943.83,10955.82,5851.58,10991.6,5740.33Z"/><path class="cls-13" d="M13423.6,5740.33q-158.76,9.29-307.27,53.23-187.52,55.5-358.69,166.29c-20.36,16-148.77,120.78-157.59,300.09-1.57,31.93-5.89,199,115.88,299,152.52,125.27,401.62,62.29,520.67-62.6,67-70.26,91.28-158.55,105.27-209.33,27.87-101.17,12.25-150.1,25.31-279.62C13373.58,5943.83,13387.82,5851.58,13423.6,5740.33Z"/><path class="cls-14" d="M14547.16,5050.46q-158.78,9.27-307.27,53.23-187.53,55.5-358.7,166.29c-20.35,16.05-148.76,120.78-157.59,300.09-1.57,31.93-5.88,199,115.89,299,152.51,125.27,401.62,62.29,520.66-62.61,67-70.25,91.29-158.55,105.28-209.32,27.87-101.17,12.25-150.11,25.31-279.63C14497.14,5254,14511.38,5161.71,14547.16,5050.46Z"/></g></g></svg>