<svg xmlns="http://www.w3.org/2000/svg" xmlns:xlink="http://www.w3.org/1999/xlink" viewBox="0 0 15781.66 10834.85"><defs><style>.cls-1{fill:#fff;}.cls-2{fill:#e0e0e0;}.cls-3{fill:url(#Dégradé_sans_nom_18);}.cls-4{fill:url(#Dégradé_sans_nom_18-2);}.cls-5{fill:url(#Dégradé_sans_nom_18-3);}.cls-6{fill:url(#Dégradé_sans_nom_18-4);}.cls-7{fill:url(#Dégradé_sans_nom_18-5);}.cls-8{fill:url(#Dégradé_sans_nom_18-6);}.cls-9{fill:url(#Dégradé_sans_nom_18-7);}.cls-10{fill:url(#Dégradé_sans_nom_18-8);}.cls-11{fill:url(#Dégradé_sans_nom_18-9);}.cls-12{fill:url(#Dégradé_sans_nom_18-10);}.cls-13{fill:url(#Dégradé_sans_nom_18-11);}.cls-14{fill:url(#Dégradé_sans_nom_18-12);}.cls-15{fill:url(#Dégradé_sans_nom_18-13);}.cls-16{fill:url(#Dégradé_sans_nom_18-14);}.cls-17{fill:url(#Dégradé_sans_nom_18-15);}.cls-18{fill:url(#Dégradé_sans_nom_18-16);}</style><linearGradient id="Dégradé_sans_nom_18" x1="2115.36" y1="10115.52" x2="2473.84" y2="9081.91" gradientTransform="translate(4250.88 -719.01) rotate(24)" gradientUnits="userSpaceOnUse"><stop offset="0" stop-color="#00d1ff"/><stop offset="0.19" stop-color="#00c1ff"/><stop offset="0.57" stop-color="#0096ff"/><stop offset="0.9" stop-color="#006dff"/></linearGradient><linearGradient id="Dégradé_sans_nom_18-2" x1="7508.01" y1="4079.67" x2="7866.49" y2="3046.06" xlink:href="#Dégradé_sans_nom_18"/><linearGradient id="Dégradé_sans_nom_18-3" x1="12126.96" y1="2023.35" x2="12485.44" y2="989.74" xlink:href="#Dégradé_sans_nom_18"/><linearGradient id="Dégradé_sans_nom_18-4" x1="11389.04" y1="3119.63" x2="11747.52" y2="2086.02" xlink:href="#Dégradé_sans_nom_18"/><linearGradient id="Dégradé_sans_nom_18-5" x1="3571.11" y1="10258.74" x2="3929.6" y2="9225.13" xlink:href="#Dégradé_sans_nom_18"/><linearGradient id="Dégradé_sans_nom_18-6" x1="2694.7" y1="11416.84" x2="3053.18" y2="10383.23" xlink:href="#Dégradé_sans_nom_18"/><linearGradient id="Dégradé_sans_nom_18-7" x1="1230.27" y1="11300.86" x2="1588.76" y2="10267.25" xlink:href="#Dégradé_sans_nom_18"/><linearGradient id="Dégradé_sans_nom_18-8" x1="8082.06" y1="5369.11" x2="8440.54" y2="4335.5" xlink:href="#Dégradé_sans_nom_18"/><linearGradient id="Dégradé_sans_nom_18-9" x1="8991.86" y1="4186.84" x2="9350.35" y2="3153.23" xlink:href="#Dégradé_sans_nom_18"/><linearGradient id="Dégradé_sans_nom_18-10" x1="9579.98" y1="5507.89" x2="9938.47" y2="4474.27" xlink:href="#Dégradé_sans_nom_18"/><linearGradient id="Dégradé_sans_nom_18-11" x1="10459.74" y1="4310.58" x2="10818.23" y2="3276.97" xlink:href="#Dégradé_sans_nom_18"/><linearGradient id="Dégradé_sans_nom_18-12" x1="9984.94" y1="2976.96" x2="10343.43" y2="1943.35" xlink:href="#Dégradé_sans_nom_18"/><linearGradient id="Dégradé_sans_nom_18-13" x1="4525.98" y1="9042.33" x2="4884.47" y2="8008.71" xlink:href="#Dégradé_sans_nom_18"/><linearGradient id="Dégradé_sans_nom_18-14" x1="3088.14" y1="8889.9" x2="3446.63" y2="7856.29" xlink:href="#Dégradé_sans_nom_18"/><linearGradient id="Dégradé_sans_nom_18-15" x1="5496.69" y1="7817.63" x2="5855.18" y2="6784.02" xlink:href="#Dégradé_sans_nom_18"/><linearGradient id="Dégradé_sans_nom_18-16" x1="990.13" y1="9823.92" x2="1348.61" y2="8790.31" xlink:href="#Dégradé_sans_nom_18"/></defs><g id="Calque_2" data-name="Calque 2"><g id="Pluie"><path class="cls-1" d="M13874.12,6221.76c-26,120.07-220.21,950-951.31,1504-427.1,323.63-963.38,506.38-1567.23,512-1107.58,10.23-2215.33,2.39-3323,2.42-1119.45,0-2238.93,3.78-3358.37-1C2996.32,8232,1735.47,7130.3,1543.26,5444c-162.38-1424.57,759.41-2891.24,2353.12-3294.91,131-33.18,272.63-138.08,350.3-250.44,999.37-1445.7,2381.6-2100.55,4108-1844.2,1670.23,248,2768.56,1255.24,3327.17,2852.71,37.8,108.12,163,230.28,272,262,550.06,160,991.5,419.7,1320.47,785.61,402.63,447.86,560.56,975.35,612,1250.33C13974.89,5678.51,13909.27,6059.41,13874.12,6221.76Z"/><path class="cls-2" d="M7212.68,7786.25c-15.18,70.14-128.61,555-555.61,878.61-249.45,189.06-562.67,295.82-915.36,299.07-646.89,6-1293.88,1.4-1940.82,1.42-653.83,0-1307.67,2.21-1961.48-.57C859.43,8960.62,123,8317,10.76,7331.89c-94.84-832.21,443.53-1689,1374.35-1924.83,76.5-19.38,159.23-80.67,204.6-146.31C2173.4,4416.2,2980.7,4033.65,3989,4183.41c975.5,144.88,1617,733.28,1943.25,1666.5,22.08,63.16,95.23,134.53,158.89,153.05,321.27,93.45,579.09,245.17,771.23,458.94,235.16,261.63,327.4,569.78,357.43,730.41C7271.54,7468.9,7233.21,7691.41,7212.68,7786.25Z"/><path class="cls-2" d="M15748.23,4894.45c-15.36,71-130.17,561.71-562.36,889.26-252.48,191.36-569.5,299.41-926.46,302.71-654.75,6.05-1309.59,1.41-1964.39,1.43-661.76,0-1323.53,2.24-1985.29-.57-991.87-4.21-1737.22-655.64-1850.84-1652.72-96-842.31,448.92-1709.51,1391-1948.19,77.42-19.62,161.16-81.64,207.08-148.08,590.77-854.8,1407.87-1242,2428.43-1090.42,987.34,146.64,1636.62,742.19,1966.84,1686.73,22.35,63.92,96.38,136.16,160.81,154.9,325.17,94.59,586.13,248.16,780.6,464.51,238,264.81,331.37,576.7,361.77,739.29C15807.81,4573.24,15769,4798.45,15748.23,4894.45Z"/><path class="cls-3" d="M2846.22,8523.63q-158.76,9.29-307.27,53.23-187.53,55.5-358.7,166.29c-20.35,16.05-148.76,120.78-157.59,300.09-1.57,31.93-5.88,199,115.89,299,152.51,125.27,401.62,62.29,520.66-62.6,67-70.26,91.29-158.55,105.28-209.33,27.87-101.17,12.25-150.1,25.31-279.62C2796.2,8727.13,2810.44,8634.88,2846.22,8523.63Z"/><path class="cls-4" d="M10227.55,5202.77q-158.76,9.28-307.27,53.23-187.52,55.52-358.69,166.3c-20.36,16-148.77,120.77-157.59,300.08-1.57,31.93-5.89,198.95,115.88,299,152.52,125.27,401.62,62.29,520.67-62.6,67-70.26,91.28-158.55,105.27-209.33,27.87-101.16,12.25-150.1,25.31-279.62C10177.53,5406.27,10191.77,5314,10227.55,5202.77Z"/><path class="cls-5" d="M15283.55,5202.77q-158.76,9.28-307.27,53.23-187.52,55.52-358.69,166.3c-20.36,16-148.77,120.77-157.59,300.08-1.57,31.93-5.89,198.95,115.88,299,152.52,125.27,401.62,62.29,520.67-62.6,67-70.26,91.28-158.55,105.27-209.33,27.87-101.16,12.25-150.1,25.31-279.62C15233.53,5406.27,15247.77,5314,15283.55,5202.77Z"/><path class="cls-6" d="M14163.55,5904.17q-158.76,9.28-307.27,53.24-187.52,55.5-358.69,166.29c-20.36,16-148.77,120.77-157.59,300.09-1.57,31.92-5.89,198.94,115.88,298.95,152.52,125.27,401.62,62.3,520.67-62.6,67-70.26,91.28-158.55,105.27-209.32,27.87-101.17,12.25-150.11,25.31-279.63C14113.53,6107.67,14127.77,6015.42,14163.55,5904.17Z"/><path class="cls-7" d="M4117.89,9246.54q-158.78,9.28-307.27,53.23-187.53,55.5-358.7,166.3c-20.35,16-148.76,120.77-157.59,300.08-1.57,31.93-5.88,199,115.89,299,152.51,125.27,401.62,62.29,520.66-62.6,67-70.26,91.29-158.55,105.28-209.33,27.87-101.16,12.25-150.1,25.31-279.62C4067.87,9450,4082.11,9357.79,4117.89,9246.54Z"/><path class="cls-8" d="M2846.22,9948.08q-158.76,9.29-307.27,53.24-187.53,55.5-358.7,166.29c-20.35,16-148.76,120.78-157.59,300.09-1.57,31.93-5.88,198.95,115.89,299,152.51,125.27,401.62,62.29,520.66-62.61,67-70.25,91.29-158.55,105.28-209.32,27.87-101.17,12.25-150.11,25.31-279.63C2796.2,10151.58,2810.44,10059.33,2846.22,9948.08Z"/><path class="cls-9" d="M1555.55,9246.54q-158.76,9.28-307.27,53.23-187.52,55.5-358.69,166.3c-20.36,16-148.77,120.77-157.59,300.08-1.57,31.93-5.89,199,115.88,299,152.52,125.27,401.62,62.29,520.67-62.6,67-70.26,91.28-158.55,105.27-209.33,27.87-101.16,12.25-150.1,25.31-279.62C1505.53,9450,1519.77,9357.79,1555.55,9246.54Z"/><path class="cls-10" d="M10227.55,6614.22q-158.76,9.28-307.27,53.24-187.52,55.5-358.69,166.29c-20.36,16-148.77,120.77-157.59,300.09-1.57,31.92-5.89,198.94,115.88,298.95,152.52,125.27,401.62,62.3,520.67-62.6,67-70.26,91.28-158.55,105.27-209.33,27.87-101.16,12.25-150.1,25.31-279.62C10177.53,6817.72,10191.77,6725.47,10227.55,6614.22Z"/><path class="cls-11" d="M11539.55,5904.17q-158.76,9.28-307.27,53.24-187.52,55.5-358.69,166.29c-20.36,16-148.77,120.77-157.59,300.09-1.57,31.92-5.89,198.94,115.88,298.95,152.52,125.27,401.62,62.3,520.67-62.6,67-70.26,91.28-158.55,105.27-209.32,27.87-101.17,12.25-150.11,25.31-279.63C11489.53,6107.67,11503.77,6015.42,11539.55,5904.17Z"/><path class="cls-12" d="M11539.55,7350.22q-158.76,9.28-307.27,53.24-187.52,55.5-358.69,166.29c-20.36,16-148.77,120.77-157.59,300.09-1.57,31.92-5.89,198.94,115.88,298.95,152.52,125.27,401.62,62.3,520.67-62.6,67-70.26,91.28-158.55,105.27-209.33,27.87-101.16,12.25-150.1,25.31-279.62C11489.53,7553.72,11503.77,7461.47,11539.55,7350.22Z"/><path class="cls-13" d="M12830.22,6614.22q-158.76,9.28-307.27,53.24-187.53,55.5-358.7,166.29c-20.35,16-148.76,120.77-157.59,300.09-1.57,31.92-5.88,198.94,115.89,298.95,152.51,125.27,401.62,62.3,520.66-62.6,67-70.26,91.29-158.55,105.28-209.33,27.87-101.16,12.25-150.1,25.31-279.62C12780.2,6817.72,12794.44,6725.47,12830.22,6614.22Z"/><path class="cls-14" d="M12938.86,5202.77q-158.78,9.28-307.27,53.23-187.53,55.52-358.7,166.3c-20.35,16-148.76,120.77-157.59,300.08-1.57,31.93-5.88,198.95,115.88,299,152.52,125.27,401.63,62.29,520.67-62.6,67-70.26,91.28-158.55,105.27-209.33,27.87-101.16,12.26-150.1,25.31-279.62C12888.83,5406.27,12903.08,5314,12938.86,5202.77Z"/><path class="cls-15" d="M5484.94,8523.63q-158.76,9.29-307.27,53.23-187.52,55.5-358.69,166.29c-20.36,16.05-148.77,120.78-157.59,300.09-1.57,31.93-5.89,199,115.88,299,152.51,125.27,401.62,62.29,520.66-62.6,67-70.26,91.29-158.55,105.28-209.33,27.87-101.17,12.25-150.1,25.31-279.62C5434.92,8727.13,5449.16,8634.88,5484.94,8523.63Z"/><path class="cls-16" d="M4233.39,7799.59q-158.78,9.28-307.27,53.24-187.53,55.5-358.7,166.29c-20.35,16-148.76,120.77-157.59,300.09-1.57,31.92-5.88,198.94,115.88,299,152.52,125.26,401.63,62.29,520.67-62.61,67-70.26,91.29-158.55,105.27-209.32,27.87-101.17,12.26-150.11,25.31-279.63C4183.37,8003.09,4197.61,7910.84,4233.39,7799.59Z"/><path class="cls-17" d="M6869.83,7799.59q-158.76,9.28-307.27,53.24-187.52,55.5-358.69,166.29c-20.36,16-148.77,120.77-157.59,300.09-1.57,31.92-5.89,198.94,115.88,299,152.52,125.26,401.62,62.29,520.67-62.61,67-70.26,91.28-158.55,105.27-209.32,27.87-101.17,12.25-150.11,25.31-279.63C6819.81,8003.09,6834.05,7910.84,6869.83,7799.59Z"/><path class="cls-18" d="M1936.85,7799.59q-158.76,9.28-307.26,53.24-187.53,55.5-358.7,166.29c-20.35,16-148.77,120.77-157.59,300.09-1.57,31.92-5.89,198.94,115.88,299,152.52,125.26,401.62,62.29,520.67-62.61,67-70.26,91.28-158.55,105.27-209.32,27.87-101.17,12.25-150.11,25.31-279.63C1886.83,8003.09,1901.08,7910.84,1936.85,7799.59Z"/></g></g></svg>