<svg xmlns="http://www.w3.org/2000/svg" viewBox="0 0 14014.75 14082.37"><defs><style>.cls-1{fill:none;stroke:#fff;stroke-miterlimit:10;stroke-width:200px;}</style></defs><g id="Calque_2" data-name="Calque 2"><g id="ManteauW"><path class="cls-1" d="M4620,2083.05a30.25,30.25,0,0,1-19.91,22c-233,78-485.49,174.27-751.36,293.79A8115.57,8115.57,0,0,0,3110,2777.47a30.22,30.22,0,0,0-12.45,13.81Q1889.4,5479.39,894.06,8244.2,479.28,9396.36,101.48,10561.75a30.31,30.31,0,0,0,2.43,24.24c109.18,193.25,362.84,579,843.48,868.88,524.24,316.16,1028.89,343.58,1253.39,341.53a30.27,30.27,0,0,0,24.82-13.36l776.62-1151.33c16.83-24.95,55.8-12.77,55.43,17.31q-20.28,1651.33-40.55,3302.67a30.31,30.31,0,0,0,30.3,30.68h7788.34a30.31,30.31,0,0,0,30.29-31.14l-102.15-3698c-.89-32.18,42.38-43.36,57.19-14.77l847.53,1635.92a30.32,30.32,0,0,0,28.53,16.32c275.13-14.51,747-76,1260.43-340.36,470.36-242.19,778-552.89,950-756.15a30.36,30.36,0,0,0,6.29-26.84q-513.52-2082.79-1255-4081Q11928.77,4718.7,10977.57,2833a30.32,30.32,0,0,0-11.68-12.47A7431.08,7431.08,0,0,0,9327,2104.9a30.29,30.29,0,0,1-21-23.08L9076.66,935.24a30.24,30.24,0,0,0-8.14-15.34c-168.5-170.63-485.84-447.43-963.8-633C7608.68,94.24,7172.66,90.32,6933,105.43a27.07,27.07,0,0,1-3.12,0c-231.16-11-670.21-1-1161.11,213.41-448.48,195.9-738.85,474.47-891.24,644.28a30.31,30.31,0,0,0-7,13.55Z"/><path class="cls-1" d="M3378.89,5918.37,3057.65,10649"/><path class="cls-1" d="M10525.56,5918.37l238.32,4334.89"/><path class="cls-1" d="M5853.56,9011.7a10420.36,10420.36,0,0,1-704,1024q-476.83,611.7-1045.34,1152"/><path class="cls-1" d="M8157.56,9011.7a8524.24,8524.24,0,0,0,1706.66,2176"/><path class="cls-1" d="M4833.39,1140.57c89.35,207.94,279.29,570.44,658,885,587.6,488,1239.89,536.81,1461.33,543.5V13982.37"/><path class="cls-1" d="M9117.73,1140.57c-110.3,216.17-322.8,560.81-703.67,863.63C7830,2468.56,7207.89,2550.09,6952.72,2569"/><path class="cls-1" d="M9309.56,2099.7c-99.71,204.26-346.63,639.18-852.84,971.17-625.15,410-1253.44,405.7-1472.5,394.16-178.55,25-867.37,100-1535.5-340.83-532.5-351.36-756.57-835.58-832.5-1024.5"/></g></g></svg>