<svg xmlns="http://www.w3.org/2000/svg" viewBox="0 0 16132.78 15815.87"><g id="Calque_2" data-name="Calque 2"><g id="WindSpeed"><path d="M15637.43,13875.14c-154.62,280.77-634.25,1123.58-1677.05,1613.49-690,324.18-1487.63,407.16-2370.69,250.44-1462.88-259.62-2410-1223.6-2847-2633.22-128.54-414.6-141-890-97.36-1326.66,50.69-507.35,436.7-758.21,932.81-794.36,481.94-35.12,900,102.9,1087.15,595.64,94.47,248.75,119.43,523.49,180.62,785.36,166,710.44,655.45,1134.31,1360.85,1182.31,745.84,50.75,1321.89-290.7,1556.76-922.75,245.56-660.83,76.26-1449-529.49-1783.6-406.31-224.4-935-310.45-1410-314-3438.37-25.38-6877.21,2.61-10315.35-35.55-420.48-4.67-945-195.12-1233.37-485.85-544-548.39-234.47-1429.77,515.09-1642.78,317.93-90.36,663.26-115.89,996.27-116.73q4888.13-12.33,9776.29-4.76c1302.94.42,2233.78,203.37,2940.28,715.57,1338.24,970.2,1588.36,2513.13,1597.54,2581.28C16259.28,12716.09,15785.63,13606,15637.43,13875.14Zm-8653.63-3934V9945c1821.22,0,3642.62-15.36,5463.56,6.75,858.51,10.42,1597.42,609.81,1887.93,1387.34,345.22,924,40.86,1672.68-607.14,2311.38-582.1,573.76-1523.32,653.19-2320.92,273.88-712.36-338.77-1043.58-903-1178.06-1671.62-46.9-268.07-393.34-671.41-614.87-679.3-375.38-13.36-504.65,378.79-422.63,759,70,324.56,123.91,657.93,241.07,966.07,543.24,1428.87,2244.14,2239.84,3767.86,1814.6,1552-433.15,2577.4-2038.86,2279.19-3569.23-330.48-1695.95-1549.79-2667-3433.5-2675.21-3440-15.06-6880.16-7.86-10320.23-.79-432.34.89-1047-98.78-1049.34,528.74-2.3,625.2,618.1,534.63,1045.83,538.27C3476.19,9949.86,5230,9941.16,6983.8,9941.16Z"/><path d="M16067.76,3985.37c-53.25,1025.18-523.5,1740.47-681.48,1974.29C15228.6,6193,14850,6741.06,14165.47,7119.55c-489.75,270.78-1049.2,412-1661.46,417.36-3751.55,32.78-7503.52,24.87-11255.29,18.75C509.69,7554.46,7,7056.85,20.11,6415c13.18-642.85,500.32-1072.92,1287.64-1074.9,3594.63-9,7189.29-1.45,10783.93-7.17,1013.24-1.61,1619.81-465.83,1752.84-1306.44,131.46-830.64-387.09-1573-1217.47-1743-751-153.72-1550.88,343.66-1756.5,1101.3-64.45,237.48-88.41,486.27-157.37,722.14-170.27,582.39-592.25,849.84-1170.36,768.52-570.83-80.3-909.16-427.55-933.21-1047.65-53.76-1386.22,778.44-2812.43,2000.93-3401.69C11528.44-16.29,12359.88-15,12638.87,7.74c257,20.93,1200.64,124.77,2069.25,847.81C14775.76,911.85,16165.25,2108.44,16067.76,3985.37ZM6972.89,6975.63q2629.36,0,5258.72-.73c1419.89-2.48,2476.81-649.73,3033.69-1936.13,511-1180.39,339-2366.49-527-3334.23-912.57-1019.76-2072.73-1347-3417.66-923.34C10134.08,1155,9117.7,2464,9193,3652.72c2.86,45.08,16.24,89.5,37,133.44,115.87,245,584.81,324.5,818.09,166.2,194.63-132.07,195-407.71,222.52-576,136.45-833.9,1449.06-2051.67,2632-1645.55,995.37,341.73,1730.79,1380.31,1584,2242.22-214,1257.15-1263.29,1959-2282.43,1945.92-3460.3-44.58-6921.54-21.49-10382.38-11.64-459.55,1.3-1154.39-185.7-1139.67,551.4,14.79,740.33,718.62,503.83,1167,509.19C3556.82,6988.33,5264.92,6976.14,6972.89,6975.63Z"/><path d="M489.22,11475.22a185.44,185.44,0,0,1,126.69-161.93c180.74-59.78,361.36-134.5,542.53-135.84,1836.47-13.61,3673.21-16.64,5509.49,6.6,116,1.47,231.13,66.11,346.18,140.13,112.28,72.24,113.61,236.06,2.52,310.11-128.87,85.92-257.85,163.84-387.91,165.7-1813.82,25.88-3628.22,21.67-5442.28,6.52-190.26-1.59-379.91-76.19-569.67-138A185.59,185.59,0,0,1,489,11478Z"/><path d="M466.44,4364.65a170,170,0,0,1,121.75-159c198.52-58.94,396.83-133.62,596.09-136.25,1278.72-16.9,2558.12-23,3836.36,6.9,132,3.08,262.16,81.21,392.2,166.36,105.4,69,101.66,224.65-6.92,288.55-117.35,69.06-234.87,130-353.5,132.22-1300.9,24.81-2602.61,21.17-3903.78,4.57-188.35-2.4-375.8-75.78-563.43-134.84a169.85,169.85,0,0,1-118.83-165.94Z"/><path d="M5999.22,4172.56,6002,4169a295.26,295.26,0,0,1,232.82-113.68h191.65A295.24,295.24,0,0,1,6613,4121.72l43.47,35.43c137.6,112.14,145.84,319.48,17.58,442.2h0a295.24,295.24,0,0,1-204.11,81.91H6265.55A295.25,295.25,0,0,1,6062,4599.92L6028.53,4568C5918.51,4463.37,5905.83,4292.31,5999.22,4172.56Z"/></g></g></svg>